G04 #@! TF.GenerationSoftware,KiCad,Pcbnew,9.0.1*
G04 #@! TF.CreationDate,2026-07-28T12:37:15-04:00*
G04 #@! TF.ProjectId,TMotor_Rev0_5_1_Mark_2_NAU_OpenExo,544d6f74-6f72-45f5-9265-76305f355f31,rev?*
G04 #@! TF.SameCoordinates,Original*
G04 #@! TF.FileFunction,Paste,Bot*
G04 #@! TF.FilePolarity,Positive*
%FSLAX46Y46*%
G04 Gerber Fmt 4.6, Leading zero omitted, Abs format (unit mm)*
G04 Created by KiCad (PCBNEW 9.0.1) date 2026-07-28 12:37:15*
%MOMM*%
%LPD*%
G01*
G04 APERTURE LIST*
G04 Aperture macros list*
%AMRoundRect*
0 Rectangle with rounded corners*
0 $1 Rounding radius*
0 $2 $3 $4 $5 $6 $7 $8 $9 X,Y pos of 4 corners*
0 Add a 4 corners polygon primitive as box body*
4,1,4,$2,$3,$4,$5,$6,$7,$8,$9,$2,$3,0*
0 Add four circle primitives for the rounded corners*
1,1,$1+$1,$2,$3*
1,1,$1+$1,$4,$5*
1,1,$1+$1,$6,$7*
1,1,$1+$1,$8,$9*
0 Add four rect primitives between the rounded corners*
20,1,$1+$1,$2,$3,$4,$5,0*
20,1,$1+$1,$4,$5,$6,$7,0*
20,1,$1+$1,$6,$7,$8,$9,0*
20,1,$1+$1,$8,$9,$2,$3,0*%
G04 Aperture macros list end*
%ADD10RoundRect,0.250000X0.475000X-0.337500X0.475000X0.337500X-0.475000X0.337500X-0.475000X-0.337500X0*%
%ADD11R,1.003300X0.431800*%
%ADD12RoundRect,0.250000X-0.337500X-0.475000X0.337500X-0.475000X0.337500X0.475000X-0.337500X0.475000X0*%
%ADD13R,0.558800X2.184400*%
%ADD14RoundRect,0.250000X-0.450000X0.350000X-0.450000X-0.350000X0.450000X-0.350000X0.450000X0.350000X0*%
%ADD15RoundRect,0.250000X-0.350000X-0.450000X0.350000X-0.450000X0.350000X0.450000X-0.350000X0.450000X0*%
%ADD16RoundRect,0.250000X-0.475000X0.337500X-0.475000X-0.337500X0.475000X-0.337500X0.475000X0.337500X0*%
%ADD17R,1.409700X0.355600*%
%ADD18RoundRect,0.250000X0.337500X0.475000X-0.337500X0.475000X-0.337500X-0.475000X0.337500X-0.475000X0*%
%ADD19RoundRect,0.162500X-0.337500X-0.162500X0.337500X-0.162500X0.337500X0.162500X-0.337500X0.162500X0*%
%ADD20RoundRect,0.250000X0.450000X-0.350000X0.450000X0.350000X-0.450000X0.350000X-0.450000X-0.350000X0*%
%ADD21RoundRect,0.075000X-0.910000X-0.225000X0.910000X-0.225000X0.910000X0.225000X-0.910000X0.225000X0*%
%ADD22R,1.407700X0.355600*%
%ADD23RoundRect,0.250000X0.350000X0.450000X-0.350000X0.450000X-0.350000X-0.450000X0.350000X-0.450000X0*%
G04 APERTURE END LIST*
D10*
G04 #@! TO.C,C17*
X160250000Y-105495000D03*
X160250000Y-103420000D03*
G04 #@! TD*
D11*
G04 #@! TO.C,U10*
X157760000Y-101440014D03*
X157760000Y-102090000D03*
X157760000Y-102739986D03*
X157760000Y-103389972D03*
X155105700Y-103389972D03*
X155105700Y-102739986D03*
X155105700Y-102090000D03*
X155105700Y-101440014D03*
G04 #@! TD*
D12*
G04 #@! TO.C,C10*
X163350000Y-116950000D03*
X165425000Y-116950000D03*
G04 #@! TD*
D13*
G04 #@! TO.C,U2*
X162895000Y-134030000D03*
X161625000Y-134030000D03*
X160355000Y-134030000D03*
X159085000Y-134030000D03*
X157815000Y-134030000D03*
X156545000Y-134030000D03*
X155275000Y-134030000D03*
X154005000Y-134030000D03*
X154005000Y-129305600D03*
X155275000Y-129305600D03*
X156545000Y-129305600D03*
X157815000Y-129305600D03*
X159085000Y-129305600D03*
X160355000Y-129305600D03*
X161625000Y-129305600D03*
X162895000Y-129305600D03*
G04 #@! TD*
D12*
G04 #@! TO.C,C11*
X163315000Y-114660000D03*
X165390000Y-114660000D03*
G04 #@! TD*
D14*
G04 #@! TO.C,R15*
X156040000Y-74920000D03*
X156040000Y-76920000D03*
G04 #@! TD*
G04 #@! TO.C,R14*
X142470000Y-83200000D03*
X142470000Y-85200000D03*
G04 #@! TD*
D10*
G04 #@! TO.C,C21*
X142490000Y-135420000D03*
X142490000Y-133345000D03*
G04 #@! TD*
G04 #@! TO.C,C20*
X134980000Y-137410000D03*
X134980000Y-135335000D03*
G04 #@! TD*
D15*
G04 #@! TO.C,R8*
X161130000Y-138620000D03*
X163130000Y-138620000D03*
G04 #@! TD*
D14*
G04 #@! TO.C,R18*
X123120000Y-77460000D03*
X123120000Y-79460000D03*
G04 #@! TD*
D15*
G04 #@! TO.C,R10*
X138660000Y-131110000D03*
X140660000Y-131110000D03*
G04 #@! TD*
G04 #@! TO.C,R2*
X162520000Y-102850000D03*
X164520000Y-102850000D03*
G04 #@! TD*
G04 #@! TO.C,R27*
X150830000Y-102680000D03*
X152830000Y-102680000D03*
G04 #@! TD*
D16*
G04 #@! TO.C,C4*
X118310000Y-106685000D03*
X118310000Y-108760000D03*
G04 #@! TD*
D14*
G04 #@! TO.C,R1*
X159160000Y-81840000D03*
X159160000Y-83840000D03*
G04 #@! TD*
G04 #@! TO.C,R25*
X125350000Y-77920000D03*
X125350000Y-79920000D03*
G04 #@! TD*
D16*
G04 #@! TO.C,C7*
X163240000Y-98485000D03*
X163240000Y-100560000D03*
G04 #@! TD*
D17*
G04 #@! TO.C,U5*
X124510000Y-118720042D03*
X124510000Y-119370028D03*
X124510000Y-120020014D03*
X124510000Y-120670000D03*
X124510000Y-121319986D03*
X124510000Y-121969972D03*
X124510000Y-122619958D03*
X118604500Y-122619958D03*
X118604500Y-121969972D03*
X118604500Y-121319986D03*
X118604500Y-120670000D03*
X118604500Y-120020014D03*
X118604500Y-119370028D03*
X118604500Y-118720042D03*
G04 #@! TD*
D18*
G04 #@! TO.C,C9*
X165410000Y-110410000D03*
X163335000Y-110410000D03*
G04 #@! TD*
D12*
G04 #@! TO.C,C2*
X117725000Y-116730000D03*
X119800000Y-116730000D03*
G04 #@! TD*
D19*
G04 #@! TO.C,D7*
X143830000Y-117020000D03*
X143830000Y-114970000D03*
X146230000Y-115990000D03*
G04 #@! TD*
D13*
G04 #@! TO.C,U4*
X144750000Y-73765600D03*
X146020000Y-73765600D03*
X147290000Y-73765600D03*
X148560000Y-73765600D03*
X149830000Y-73765600D03*
X151100000Y-73765600D03*
X152370000Y-73765600D03*
X153640000Y-73765600D03*
X153640000Y-78490000D03*
X152370000Y-78490000D03*
X151100000Y-78490000D03*
X149830000Y-78490000D03*
X148560000Y-78490000D03*
X147290000Y-78490000D03*
X146020000Y-78490000D03*
X144750000Y-78490000D03*
G04 #@! TD*
D18*
G04 #@! TO.C,C1*
X124510000Y-116750000D03*
X122435000Y-116750000D03*
G04 #@! TD*
D16*
G04 #@! TO.C,C3*
X124380000Y-106775000D03*
X124380000Y-108850000D03*
G04 #@! TD*
D20*
G04 #@! TO.C,R31*
X125870000Y-87760000D03*
X125870000Y-85760000D03*
G04 #@! TD*
D21*
G04 #@! TO.C,U8*
X137605000Y-95130000D03*
X137605000Y-93860000D03*
X137605000Y-92590000D03*
X137605000Y-91320000D03*
X142545000Y-91320000D03*
X142545000Y-92590000D03*
X142545000Y-93860000D03*
X142545000Y-95130000D03*
G04 #@! TD*
D22*
G04 #@! TO.C,U6*
X124300000Y-110550000D03*
X124300000Y-111200001D03*
X124300000Y-111850002D03*
X124300000Y-112500001D03*
X124300000Y-113150000D03*
X124300000Y-113800001D03*
X124300000Y-114450000D03*
X118396502Y-114450002D03*
X118396502Y-113800001D03*
X118396502Y-113150002D03*
X118396502Y-112500001D03*
X118396502Y-111850002D03*
X118396502Y-111200001D03*
X118396502Y-110550002D03*
G04 #@! TD*
D12*
G04 #@! TO.C,C16*
X156970000Y-137160000D03*
X159045000Y-137160000D03*
G04 #@! TD*
D20*
G04 #@! TO.C,R9*
X150450000Y-137480000D03*
X150450000Y-135480000D03*
G04 #@! TD*
D15*
G04 #@! TO.C,R28*
X150820000Y-104810000D03*
X152820000Y-104810000D03*
G04 #@! TD*
D13*
G04 #@! TO.C,U1*
X136455000Y-138445600D03*
X137725000Y-138445600D03*
X138995000Y-138445600D03*
X140265000Y-138445600D03*
X141535000Y-138445600D03*
X142805000Y-138445600D03*
X144075000Y-138445600D03*
X145345000Y-138445600D03*
X145345000Y-143170000D03*
X144075000Y-143170000D03*
X142805000Y-143170000D03*
X141535000Y-143170000D03*
X140265000Y-143170000D03*
X138995000Y-143170000D03*
X137725000Y-143170000D03*
X136455000Y-143170000D03*
G04 #@! TD*
D20*
G04 #@! TO.C,R7*
X151905000Y-132615000D03*
X151905000Y-130615000D03*
G04 #@! TD*
D18*
G04 #@! TO.C,C18*
X134825000Y-139380000D03*
X132750000Y-139380000D03*
G04 #@! TD*
D16*
G04 #@! TO.C,C5*
X105430000Y-133825000D03*
X105430000Y-135900000D03*
G04 #@! TD*
D13*
G04 #@! TO.C,U3*
X123025000Y-67175600D03*
X124295000Y-67175600D03*
X125565000Y-67175600D03*
X126835000Y-67175600D03*
X128105000Y-67175600D03*
X129375000Y-67175600D03*
X130645000Y-67175600D03*
X131915000Y-67175600D03*
X131915000Y-71900000D03*
X130645000Y-71900000D03*
X129375000Y-71900000D03*
X128105000Y-71900000D03*
X126835000Y-71900000D03*
X125565000Y-71900000D03*
X124295000Y-71900000D03*
X123025000Y-71900000D03*
G04 #@! TD*
D23*
G04 #@! TO.C,R22*
X160460000Y-124050000D03*
X158460000Y-124050000D03*
G04 #@! TD*
D18*
G04 #@! TO.C,C14*
X154670000Y-137160000D03*
X152595000Y-137160000D03*
G04 #@! TD*
D14*
G04 #@! TO.C,R19*
X134440000Y-68470000D03*
X134440000Y-70470000D03*
G04 #@! TD*
G04 #@! TO.C,R24*
X140400000Y-83160000D03*
X140400000Y-85160000D03*
G04 #@! TD*
D20*
G04 #@! TO.C,R12*
X144770000Y-133500000D03*
X144770000Y-131500000D03*
G04 #@! TD*
G04 #@! TO.C,R32*
X123890000Y-86080000D03*
X123890000Y-84080000D03*
G04 #@! TD*
D18*
G04 #@! TO.C,C36*
X156310000Y-124000000D03*
X154235000Y-124000000D03*
G04 #@! TD*
M02*
