%TF.GenerationSoftware,KiCad,Pcbnew,9.0.1*%
%TF.CreationDate,2026-07-28T12:37:15-04:00*%
%TF.ProjectId,TMotor_Rev0_5_1_Mark_2_NAU_OpenExo,544d6f74-6f72-45f5-9265-76305f355f31,rev?*%
%TF.SameCoordinates,Original*%
%TF.FileFunction,Drillmap*%
%TF.FilePolarity,Positive*%
%FSLAX45Y45*%
G04 Gerber Fmt 4.5, Leading zero omitted, Abs format (unit mm)*
G04 Created by KiCad (PCBNEW 9.0.1) date 2026-07-28 12:37:15*
%MOMM*%
%LPD*%
G01*
G04 APERTURE LIST*
%ADD10C,0.254000*%
%ADD11C,0.050000*%
%ADD12C,0.200000*%
%ADD13C,0.180000*%
G04 APERTURE END LIST*
D10*
X13585092Y-7972606D02*
G75*
G02*
X13235092Y-7972606I-175000J0D01*
G01*
X13235092Y-7972606D02*
G75*
G02*
X13585092Y-7972606I175000J0D01*
G01*
X12158028Y-13138172D02*
G75*
G02*
X11808028Y-13138172I-175000J0D01*
G01*
X11808028Y-13138172D02*
G75*
G02*
X12158028Y-13138172I175000J0D01*
G01*
D11*
X10341000Y-6398000D02*
X19276634Y-6398000D01*
X19276634Y-14662555D01*
X10341000Y-14662555D01*
X10341000Y-6398000D01*
D10*
X18194110Y-12808110D02*
G75*
G02*
X17844110Y-12808110I-175000J0D01*
G01*
X17844110Y-12808110D02*
G75*
G02*
X18194110Y-12808110I175000J0D01*
G01*
X18271000Y-8009000D02*
G75*
G02*
X17921000Y-8009000I-175000J0D01*
G01*
X17921000Y-8009000D02*
G75*
G02*
X18271000Y-8009000I175000J0D01*
G01*
D12*
D13*
X13221000Y-8458000D02*
X13401000Y-8638000D01*
X13401000Y-8458000D02*
X13221000Y-8638000D01*
X13221000Y-12522000D02*
X13401000Y-12702000D01*
X13401000Y-12522000D02*
X13221000Y-12702000D01*
X14745000Y-8458000D02*
X14925000Y-8638000D01*
X14925000Y-8458000D02*
X14745000Y-8638000D01*
X14745000Y-12522000D02*
X14925000Y-12702000D01*
X14925000Y-12522000D02*
X14745000Y-12702000D01*
D12*
X10599277Y-14976539D02*
X10599277Y-14776539D01*
X10599277Y-14776539D02*
X10646896Y-14776539D01*
X10646896Y-14776539D02*
X10675467Y-14786062D01*
X10675467Y-14786062D02*
X10694515Y-14805110D01*
X10694515Y-14805110D02*
X10704039Y-14824158D01*
X10704039Y-14824158D02*
X10713563Y-14862253D01*
X10713563Y-14862253D02*
X10713563Y-14890824D01*
X10713563Y-14890824D02*
X10704039Y-14928919D01*
X10704039Y-14928919D02*
X10694515Y-14947967D01*
X10694515Y-14947967D02*
X10675467Y-14967015D01*
X10675467Y-14967015D02*
X10646896Y-14976539D01*
X10646896Y-14976539D02*
X10599277Y-14976539D01*
X10799277Y-14976539D02*
X10799277Y-14843205D01*
X10799277Y-14881300D02*
X10808801Y-14862253D01*
X10808801Y-14862253D02*
X10818324Y-14852729D01*
X10818324Y-14852729D02*
X10837372Y-14843205D01*
X10837372Y-14843205D02*
X10856420Y-14843205D01*
X10923086Y-14976539D02*
X10923086Y-14843205D01*
X10923086Y-14776539D02*
X10913563Y-14786062D01*
X10913563Y-14786062D02*
X10923086Y-14795586D01*
X10923086Y-14795586D02*
X10932610Y-14786062D01*
X10932610Y-14786062D02*
X10923086Y-14776539D01*
X10923086Y-14776539D02*
X10923086Y-14795586D01*
X11046896Y-14976539D02*
X11027848Y-14967015D01*
X11027848Y-14967015D02*
X11018324Y-14947967D01*
X11018324Y-14947967D02*
X11018324Y-14776539D01*
X11151658Y-14976539D02*
X11132610Y-14967015D01*
X11132610Y-14967015D02*
X11123086Y-14947967D01*
X11123086Y-14947967D02*
X11123086Y-14776539D01*
X11380229Y-14976539D02*
X11380229Y-14776539D01*
X11380229Y-14776539D02*
X11446896Y-14919396D01*
X11446896Y-14919396D02*
X11513562Y-14776539D01*
X11513562Y-14776539D02*
X11513562Y-14976539D01*
X11694515Y-14976539D02*
X11694515Y-14871777D01*
X11694515Y-14871777D02*
X11684991Y-14852729D01*
X11684991Y-14852729D02*
X11665943Y-14843205D01*
X11665943Y-14843205D02*
X11627848Y-14843205D01*
X11627848Y-14843205D02*
X11608801Y-14852729D01*
X11694515Y-14967015D02*
X11675467Y-14976539D01*
X11675467Y-14976539D02*
X11627848Y-14976539D01*
X11627848Y-14976539D02*
X11608801Y-14967015D01*
X11608801Y-14967015D02*
X11599277Y-14947967D01*
X11599277Y-14947967D02*
X11599277Y-14928919D01*
X11599277Y-14928919D02*
X11608801Y-14909872D01*
X11608801Y-14909872D02*
X11627848Y-14900348D01*
X11627848Y-14900348D02*
X11675467Y-14900348D01*
X11675467Y-14900348D02*
X11694515Y-14890824D01*
X11789753Y-14843205D02*
X11789753Y-15043205D01*
X11789753Y-14852729D02*
X11808801Y-14843205D01*
X11808801Y-14843205D02*
X11846896Y-14843205D01*
X11846896Y-14843205D02*
X11865943Y-14852729D01*
X11865943Y-14852729D02*
X11875467Y-14862253D01*
X11875467Y-14862253D02*
X11884991Y-14881300D01*
X11884991Y-14881300D02*
X11884991Y-14938443D01*
X11884991Y-14938443D02*
X11875467Y-14957491D01*
X11875467Y-14957491D02*
X11865943Y-14967015D01*
X11865943Y-14967015D02*
X11846896Y-14976539D01*
X11846896Y-14976539D02*
X11808801Y-14976539D01*
X11808801Y-14976539D02*
X11789753Y-14967015D01*
X11970705Y-14957491D02*
X11980229Y-14967015D01*
X11980229Y-14967015D02*
X11970705Y-14976539D01*
X11970705Y-14976539D02*
X11961182Y-14967015D01*
X11961182Y-14967015D02*
X11970705Y-14957491D01*
X11970705Y-14957491D02*
X11970705Y-14976539D01*
X11970705Y-14852729D02*
X11980229Y-14862253D01*
X11980229Y-14862253D02*
X11970705Y-14871777D01*
X11970705Y-14871777D02*
X11961182Y-14862253D01*
X11961182Y-14862253D02*
X11970705Y-14852729D01*
X11970705Y-14852729D02*
X11970705Y-14871777D01*
D13*
X10158500Y-15215055D02*
X10338500Y-15395055D01*
X10338500Y-15215055D02*
X10158500Y-15395055D01*
D12*
X10704039Y-15396539D02*
X10589753Y-15396539D01*
X10646896Y-15396539D02*
X10646896Y-15196539D01*
X10646896Y-15196539D02*
X10627848Y-15225110D01*
X10627848Y-15225110D02*
X10608801Y-15244158D01*
X10608801Y-15244158D02*
X10589753Y-15253681D01*
X10789753Y-15377491D02*
X10799277Y-15387015D01*
X10799277Y-15387015D02*
X10789753Y-15396539D01*
X10789753Y-15396539D02*
X10780229Y-15387015D01*
X10780229Y-15387015D02*
X10789753Y-15377491D01*
X10789753Y-15377491D02*
X10789753Y-15396539D01*
X10913563Y-15282253D02*
X10894515Y-15272729D01*
X10894515Y-15272729D02*
X10884991Y-15263205D01*
X10884991Y-15263205D02*
X10875467Y-15244158D01*
X10875467Y-15244158D02*
X10875467Y-15234634D01*
X10875467Y-15234634D02*
X10884991Y-15215586D01*
X10884991Y-15215586D02*
X10894515Y-15206062D01*
X10894515Y-15206062D02*
X10913563Y-15196539D01*
X10913563Y-15196539D02*
X10951658Y-15196539D01*
X10951658Y-15196539D02*
X10970705Y-15206062D01*
X10970705Y-15206062D02*
X10980229Y-15215586D01*
X10980229Y-15215586D02*
X10989753Y-15234634D01*
X10989753Y-15234634D02*
X10989753Y-15244158D01*
X10989753Y-15244158D02*
X10980229Y-15263205D01*
X10980229Y-15263205D02*
X10970705Y-15272729D01*
X10970705Y-15272729D02*
X10951658Y-15282253D01*
X10951658Y-15282253D02*
X10913563Y-15282253D01*
X10913563Y-15282253D02*
X10894515Y-15291777D01*
X10894515Y-15291777D02*
X10884991Y-15301300D01*
X10884991Y-15301300D02*
X10875467Y-15320348D01*
X10875467Y-15320348D02*
X10875467Y-15358443D01*
X10875467Y-15358443D02*
X10884991Y-15377491D01*
X10884991Y-15377491D02*
X10894515Y-15387015D01*
X10894515Y-15387015D02*
X10913563Y-15396539D01*
X10913563Y-15396539D02*
X10951658Y-15396539D01*
X10951658Y-15396539D02*
X10970705Y-15387015D01*
X10970705Y-15387015D02*
X10980229Y-15377491D01*
X10980229Y-15377491D02*
X10989753Y-15358443D01*
X10989753Y-15358443D02*
X10989753Y-15320348D01*
X10989753Y-15320348D02*
X10980229Y-15301300D01*
X10980229Y-15301300D02*
X10970705Y-15291777D01*
X10970705Y-15291777D02*
X10951658Y-15282253D01*
X11113563Y-15196539D02*
X11132610Y-15196539D01*
X11132610Y-15196539D02*
X11151658Y-15206062D01*
X11151658Y-15206062D02*
X11161182Y-15215586D01*
X11161182Y-15215586D02*
X11170705Y-15234634D01*
X11170705Y-15234634D02*
X11180229Y-15272729D01*
X11180229Y-15272729D02*
X11180229Y-15320348D01*
X11180229Y-15320348D02*
X11170705Y-15358443D01*
X11170705Y-15358443D02*
X11161182Y-15377491D01*
X11161182Y-15377491D02*
X11151658Y-15387015D01*
X11151658Y-15387015D02*
X11132610Y-15396539D01*
X11132610Y-15396539D02*
X11113563Y-15396539D01*
X11113563Y-15396539D02*
X11094515Y-15387015D01*
X11094515Y-15387015D02*
X11084991Y-15377491D01*
X11084991Y-15377491D02*
X11075467Y-15358443D01*
X11075467Y-15358443D02*
X11065944Y-15320348D01*
X11065944Y-15320348D02*
X11065944Y-15272729D01*
X11065944Y-15272729D02*
X11075467Y-15234634D01*
X11075467Y-15234634D02*
X11084991Y-15215586D01*
X11084991Y-15215586D02*
X11094515Y-15206062D01*
X11094515Y-15206062D02*
X11113563Y-15196539D01*
X11304039Y-15196539D02*
X11323086Y-15196539D01*
X11323086Y-15196539D02*
X11342134Y-15206062D01*
X11342134Y-15206062D02*
X11351658Y-15215586D01*
X11351658Y-15215586D02*
X11361182Y-15234634D01*
X11361182Y-15234634D02*
X11370705Y-15272729D01*
X11370705Y-15272729D02*
X11370705Y-15320348D01*
X11370705Y-15320348D02*
X11361182Y-15358443D01*
X11361182Y-15358443D02*
X11351658Y-15377491D01*
X11351658Y-15377491D02*
X11342134Y-15387015D01*
X11342134Y-15387015D02*
X11323086Y-15396539D01*
X11323086Y-15396539D02*
X11304039Y-15396539D01*
X11304039Y-15396539D02*
X11284991Y-15387015D01*
X11284991Y-15387015D02*
X11275467Y-15377491D01*
X11275467Y-15377491D02*
X11265943Y-15358443D01*
X11265943Y-15358443D02*
X11256420Y-15320348D01*
X11256420Y-15320348D02*
X11256420Y-15272729D01*
X11256420Y-15272729D02*
X11265943Y-15234634D01*
X11265943Y-15234634D02*
X11275467Y-15215586D01*
X11275467Y-15215586D02*
X11284991Y-15206062D01*
X11284991Y-15206062D02*
X11304039Y-15196539D01*
X11456420Y-15396539D02*
X11456420Y-15263205D01*
X11456420Y-15282253D02*
X11465943Y-15272729D01*
X11465943Y-15272729D02*
X11484991Y-15263205D01*
X11484991Y-15263205D02*
X11513563Y-15263205D01*
X11513563Y-15263205D02*
X11532610Y-15272729D01*
X11532610Y-15272729D02*
X11542134Y-15291777D01*
X11542134Y-15291777D02*
X11542134Y-15396539D01*
X11542134Y-15291777D02*
X11551658Y-15272729D01*
X11551658Y-15272729D02*
X11570705Y-15263205D01*
X11570705Y-15263205D02*
X11599277Y-15263205D01*
X11599277Y-15263205D02*
X11618324Y-15272729D01*
X11618324Y-15272729D02*
X11627848Y-15291777D01*
X11627848Y-15291777D02*
X11627848Y-15396539D01*
X11723086Y-15396539D02*
X11723086Y-15263205D01*
X11723086Y-15282253D02*
X11732610Y-15272729D01*
X11732610Y-15272729D02*
X11751658Y-15263205D01*
X11751658Y-15263205D02*
X11780229Y-15263205D01*
X11780229Y-15263205D02*
X11799277Y-15272729D01*
X11799277Y-15272729D02*
X11808801Y-15291777D01*
X11808801Y-15291777D02*
X11808801Y-15396539D01*
X11808801Y-15291777D02*
X11818324Y-15272729D01*
X11818324Y-15272729D02*
X11837372Y-15263205D01*
X11837372Y-15263205D02*
X11865943Y-15263205D01*
X11865943Y-15263205D02*
X11884991Y-15272729D01*
X11884991Y-15272729D02*
X11894515Y-15291777D01*
X11894515Y-15291777D02*
X11894515Y-15396539D01*
X12284991Y-15187015D02*
X12113563Y-15444158D01*
X12542134Y-15196539D02*
X12561182Y-15196539D01*
X12561182Y-15196539D02*
X12580229Y-15206062D01*
X12580229Y-15206062D02*
X12589753Y-15215586D01*
X12589753Y-15215586D02*
X12599277Y-15234634D01*
X12599277Y-15234634D02*
X12608801Y-15272729D01*
X12608801Y-15272729D02*
X12608801Y-15320348D01*
X12608801Y-15320348D02*
X12599277Y-15358443D01*
X12599277Y-15358443D02*
X12589753Y-15377491D01*
X12589753Y-15377491D02*
X12580229Y-15387015D01*
X12580229Y-15387015D02*
X12561182Y-15396539D01*
X12561182Y-15396539D02*
X12542134Y-15396539D01*
X12542134Y-15396539D02*
X12523086Y-15387015D01*
X12523086Y-15387015D02*
X12513563Y-15377491D01*
X12513563Y-15377491D02*
X12504039Y-15358443D01*
X12504039Y-15358443D02*
X12494515Y-15320348D01*
X12494515Y-15320348D02*
X12494515Y-15272729D01*
X12494515Y-15272729D02*
X12504039Y-15234634D01*
X12504039Y-15234634D02*
X12513563Y-15215586D01*
X12513563Y-15215586D02*
X12523086Y-15206062D01*
X12523086Y-15206062D02*
X12542134Y-15196539D01*
X12694515Y-15377491D02*
X12704039Y-15387015D01*
X12704039Y-15387015D02*
X12694515Y-15396539D01*
X12694515Y-15396539D02*
X12684991Y-15387015D01*
X12684991Y-15387015D02*
X12694515Y-15377491D01*
X12694515Y-15377491D02*
X12694515Y-15396539D01*
X12827848Y-15196539D02*
X12846896Y-15196539D01*
X12846896Y-15196539D02*
X12865944Y-15206062D01*
X12865944Y-15206062D02*
X12875467Y-15215586D01*
X12875467Y-15215586D02*
X12884991Y-15234634D01*
X12884991Y-15234634D02*
X12894515Y-15272729D01*
X12894515Y-15272729D02*
X12894515Y-15320348D01*
X12894515Y-15320348D02*
X12884991Y-15358443D01*
X12884991Y-15358443D02*
X12875467Y-15377491D01*
X12875467Y-15377491D02*
X12865944Y-15387015D01*
X12865944Y-15387015D02*
X12846896Y-15396539D01*
X12846896Y-15396539D02*
X12827848Y-15396539D01*
X12827848Y-15396539D02*
X12808801Y-15387015D01*
X12808801Y-15387015D02*
X12799277Y-15377491D01*
X12799277Y-15377491D02*
X12789753Y-15358443D01*
X12789753Y-15358443D02*
X12780229Y-15320348D01*
X12780229Y-15320348D02*
X12780229Y-15272729D01*
X12780229Y-15272729D02*
X12789753Y-15234634D01*
X12789753Y-15234634D02*
X12799277Y-15215586D01*
X12799277Y-15215586D02*
X12808801Y-15206062D01*
X12808801Y-15206062D02*
X12827848Y-15196539D01*
X12961182Y-15196539D02*
X13094515Y-15196539D01*
X13094515Y-15196539D02*
X13008801Y-15396539D01*
X13208801Y-15196539D02*
X13227848Y-15196539D01*
X13227848Y-15196539D02*
X13246896Y-15206062D01*
X13246896Y-15206062D02*
X13256420Y-15215586D01*
X13256420Y-15215586D02*
X13265944Y-15234634D01*
X13265944Y-15234634D02*
X13275467Y-15272729D01*
X13275467Y-15272729D02*
X13275467Y-15320348D01*
X13275467Y-15320348D02*
X13265944Y-15358443D01*
X13265944Y-15358443D02*
X13256420Y-15377491D01*
X13256420Y-15377491D02*
X13246896Y-15387015D01*
X13246896Y-15387015D02*
X13227848Y-15396539D01*
X13227848Y-15396539D02*
X13208801Y-15396539D01*
X13208801Y-15396539D02*
X13189753Y-15387015D01*
X13189753Y-15387015D02*
X13180229Y-15377491D01*
X13180229Y-15377491D02*
X13170706Y-15358443D01*
X13170706Y-15358443D02*
X13161182Y-15320348D01*
X13161182Y-15320348D02*
X13161182Y-15272729D01*
X13161182Y-15272729D02*
X13170706Y-15234634D01*
X13170706Y-15234634D02*
X13180229Y-15215586D01*
X13180229Y-15215586D02*
X13189753Y-15206062D01*
X13189753Y-15206062D02*
X13208801Y-15196539D01*
X13370706Y-15396539D02*
X13408801Y-15396539D01*
X13408801Y-15396539D02*
X13427848Y-15387015D01*
X13427848Y-15387015D02*
X13437372Y-15377491D01*
X13437372Y-15377491D02*
X13456420Y-15348919D01*
X13456420Y-15348919D02*
X13465944Y-15310824D01*
X13465944Y-15310824D02*
X13465944Y-15234634D01*
X13465944Y-15234634D02*
X13456420Y-15215586D01*
X13456420Y-15215586D02*
X13446896Y-15206062D01*
X13446896Y-15206062D02*
X13427848Y-15196539D01*
X13427848Y-15196539D02*
X13389753Y-15196539D01*
X13389753Y-15196539D02*
X13370706Y-15206062D01*
X13370706Y-15206062D02*
X13361182Y-15215586D01*
X13361182Y-15215586D02*
X13351658Y-15234634D01*
X13351658Y-15234634D02*
X13351658Y-15282253D01*
X13351658Y-15282253D02*
X13361182Y-15301300D01*
X13361182Y-15301300D02*
X13370706Y-15310824D01*
X13370706Y-15310824D02*
X13389753Y-15320348D01*
X13389753Y-15320348D02*
X13427848Y-15320348D01*
X13427848Y-15320348D02*
X13446896Y-15310824D01*
X13446896Y-15310824D02*
X13456420Y-15301300D01*
X13456420Y-15301300D02*
X13465944Y-15282253D01*
X13542134Y-15196539D02*
X13542134Y-15234634D01*
X13618325Y-15196539D02*
X13618325Y-15234634D01*
X13913563Y-15472729D02*
X13904039Y-15463205D01*
X13904039Y-15463205D02*
X13884991Y-15434634D01*
X13884991Y-15434634D02*
X13875468Y-15415586D01*
X13875468Y-15415586D02*
X13865944Y-15387015D01*
X13865944Y-15387015D02*
X13856420Y-15339396D01*
X13856420Y-15339396D02*
X13856420Y-15301300D01*
X13856420Y-15301300D02*
X13865944Y-15253681D01*
X13865944Y-15253681D02*
X13875468Y-15225110D01*
X13875468Y-15225110D02*
X13884991Y-15206062D01*
X13884991Y-15206062D02*
X13904039Y-15177491D01*
X13904039Y-15177491D02*
X13913563Y-15167967D01*
X14075468Y-15263205D02*
X14075468Y-15396539D01*
X14027848Y-15187015D02*
X13980229Y-15329872D01*
X13980229Y-15329872D02*
X14104039Y-15329872D01*
X14332610Y-15396539D02*
X14332610Y-15196539D01*
X14418325Y-15396539D02*
X14418325Y-15291777D01*
X14418325Y-15291777D02*
X14408801Y-15272729D01*
X14408801Y-15272729D02*
X14389753Y-15263205D01*
X14389753Y-15263205D02*
X14361182Y-15263205D01*
X14361182Y-15263205D02*
X14342134Y-15272729D01*
X14342134Y-15272729D02*
X14332610Y-15282253D01*
X14542134Y-15396539D02*
X14523087Y-15387015D01*
X14523087Y-15387015D02*
X14513563Y-15377491D01*
X14513563Y-15377491D02*
X14504039Y-15358443D01*
X14504039Y-15358443D02*
X14504039Y-15301300D01*
X14504039Y-15301300D02*
X14513563Y-15282253D01*
X14513563Y-15282253D02*
X14523087Y-15272729D01*
X14523087Y-15272729D02*
X14542134Y-15263205D01*
X14542134Y-15263205D02*
X14570706Y-15263205D01*
X14570706Y-15263205D02*
X14589753Y-15272729D01*
X14589753Y-15272729D02*
X14599277Y-15282253D01*
X14599277Y-15282253D02*
X14608801Y-15301300D01*
X14608801Y-15301300D02*
X14608801Y-15358443D01*
X14608801Y-15358443D02*
X14599277Y-15377491D01*
X14599277Y-15377491D02*
X14589753Y-15387015D01*
X14589753Y-15387015D02*
X14570706Y-15396539D01*
X14570706Y-15396539D02*
X14542134Y-15396539D01*
X14723087Y-15396539D02*
X14704039Y-15387015D01*
X14704039Y-15387015D02*
X14694515Y-15367967D01*
X14694515Y-15367967D02*
X14694515Y-15196539D01*
X14875468Y-15387015D02*
X14856420Y-15396539D01*
X14856420Y-15396539D02*
X14818325Y-15396539D01*
X14818325Y-15396539D02*
X14799277Y-15387015D01*
X14799277Y-15387015D02*
X14789753Y-15367967D01*
X14789753Y-15367967D02*
X14789753Y-15291777D01*
X14789753Y-15291777D02*
X14799277Y-15272729D01*
X14799277Y-15272729D02*
X14818325Y-15263205D01*
X14818325Y-15263205D02*
X14856420Y-15263205D01*
X14856420Y-15263205D02*
X14875468Y-15272729D01*
X14875468Y-15272729D02*
X14884991Y-15291777D01*
X14884991Y-15291777D02*
X14884991Y-15310824D01*
X14884991Y-15310824D02*
X14789753Y-15329872D01*
X14961182Y-15387015D02*
X14980230Y-15396539D01*
X14980230Y-15396539D02*
X15018325Y-15396539D01*
X15018325Y-15396539D02*
X15037372Y-15387015D01*
X15037372Y-15387015D02*
X15046896Y-15367967D01*
X15046896Y-15367967D02*
X15046896Y-15358443D01*
X15046896Y-15358443D02*
X15037372Y-15339396D01*
X15037372Y-15339396D02*
X15018325Y-15329872D01*
X15018325Y-15329872D02*
X14989753Y-15329872D01*
X14989753Y-15329872D02*
X14970706Y-15320348D01*
X14970706Y-15320348D02*
X14961182Y-15301300D01*
X14961182Y-15301300D02*
X14961182Y-15291777D01*
X14961182Y-15291777D02*
X14970706Y-15272729D01*
X14970706Y-15272729D02*
X14989753Y-15263205D01*
X14989753Y-15263205D02*
X15018325Y-15263205D01*
X15018325Y-15263205D02*
X15037372Y-15272729D01*
X15113563Y-15472729D02*
X15123087Y-15463205D01*
X15123087Y-15463205D02*
X15142134Y-15434634D01*
X15142134Y-15434634D02*
X15151658Y-15415586D01*
X15151658Y-15415586D02*
X15161182Y-15387015D01*
X15161182Y-15387015D02*
X15170706Y-15339396D01*
X15170706Y-15339396D02*
X15170706Y-15301300D01*
X15170706Y-15301300D02*
X15161182Y-15253681D01*
X15161182Y-15253681D02*
X15151658Y-15225110D01*
X15151658Y-15225110D02*
X15142134Y-15206062D01*
X15142134Y-15206062D02*
X15123087Y-15177491D01*
X15123087Y-15177491D02*
X15113563Y-15167967D01*
X15475468Y-15472729D02*
X15465944Y-15463205D01*
X15465944Y-15463205D02*
X15446896Y-15434634D01*
X15446896Y-15434634D02*
X15437372Y-15415586D01*
X15437372Y-15415586D02*
X15427849Y-15387015D01*
X15427849Y-15387015D02*
X15418325Y-15339396D01*
X15418325Y-15339396D02*
X15418325Y-15301300D01*
X15418325Y-15301300D02*
X15427849Y-15253681D01*
X15427849Y-15253681D02*
X15437372Y-15225110D01*
X15437372Y-15225110D02*
X15446896Y-15206062D01*
X15446896Y-15206062D02*
X15465944Y-15177491D01*
X15465944Y-15177491D02*
X15475468Y-15167967D01*
X15551658Y-15263205D02*
X15551658Y-15396539D01*
X15551658Y-15282253D02*
X15561182Y-15272729D01*
X15561182Y-15272729D02*
X15580230Y-15263205D01*
X15580230Y-15263205D02*
X15608801Y-15263205D01*
X15608801Y-15263205D02*
X15627849Y-15272729D01*
X15627849Y-15272729D02*
X15637372Y-15291777D01*
X15637372Y-15291777D02*
X15637372Y-15396539D01*
X15761182Y-15396539D02*
X15742134Y-15387015D01*
X15742134Y-15387015D02*
X15732611Y-15377491D01*
X15732611Y-15377491D02*
X15723087Y-15358443D01*
X15723087Y-15358443D02*
X15723087Y-15301300D01*
X15723087Y-15301300D02*
X15732611Y-15282253D01*
X15732611Y-15282253D02*
X15742134Y-15272729D01*
X15742134Y-15272729D02*
X15761182Y-15263205D01*
X15761182Y-15263205D02*
X15789753Y-15263205D01*
X15789753Y-15263205D02*
X15808801Y-15272729D01*
X15808801Y-15272729D02*
X15818325Y-15282253D01*
X15818325Y-15282253D02*
X15827849Y-15301300D01*
X15827849Y-15301300D02*
X15827849Y-15358443D01*
X15827849Y-15358443D02*
X15818325Y-15377491D01*
X15818325Y-15377491D02*
X15808801Y-15387015D01*
X15808801Y-15387015D02*
X15789753Y-15396539D01*
X15789753Y-15396539D02*
X15761182Y-15396539D01*
X15884992Y-15263205D02*
X15961182Y-15263205D01*
X15913563Y-15196539D02*
X15913563Y-15367967D01*
X15913563Y-15367967D02*
X15923087Y-15387015D01*
X15923087Y-15387015D02*
X15942134Y-15396539D01*
X15942134Y-15396539D02*
X15961182Y-15396539D01*
X16180230Y-15263205D02*
X16180230Y-15463205D01*
X16180230Y-15272729D02*
X16199277Y-15263205D01*
X16199277Y-15263205D02*
X16237373Y-15263205D01*
X16237373Y-15263205D02*
X16256420Y-15272729D01*
X16256420Y-15272729D02*
X16265944Y-15282253D01*
X16265944Y-15282253D02*
X16275468Y-15301300D01*
X16275468Y-15301300D02*
X16275468Y-15358443D01*
X16275468Y-15358443D02*
X16265944Y-15377491D01*
X16265944Y-15377491D02*
X16256420Y-15387015D01*
X16256420Y-15387015D02*
X16237373Y-15396539D01*
X16237373Y-15396539D02*
X16199277Y-15396539D01*
X16199277Y-15396539D02*
X16180230Y-15387015D01*
X16389753Y-15396539D02*
X16370706Y-15387015D01*
X16370706Y-15387015D02*
X16361182Y-15367967D01*
X16361182Y-15367967D02*
X16361182Y-15196539D01*
X16551658Y-15396539D02*
X16551658Y-15291777D01*
X16551658Y-15291777D02*
X16542134Y-15272729D01*
X16542134Y-15272729D02*
X16523087Y-15263205D01*
X16523087Y-15263205D02*
X16484992Y-15263205D01*
X16484992Y-15263205D02*
X16465944Y-15272729D01*
X16551658Y-15387015D02*
X16532611Y-15396539D01*
X16532611Y-15396539D02*
X16484992Y-15396539D01*
X16484992Y-15396539D02*
X16465944Y-15387015D01*
X16465944Y-15387015D02*
X16456420Y-15367967D01*
X16456420Y-15367967D02*
X16456420Y-15348919D01*
X16456420Y-15348919D02*
X16465944Y-15329872D01*
X16465944Y-15329872D02*
X16484992Y-15320348D01*
X16484992Y-15320348D02*
X16532611Y-15320348D01*
X16532611Y-15320348D02*
X16551658Y-15310824D01*
X16618325Y-15263205D02*
X16694515Y-15263205D01*
X16646896Y-15196539D02*
X16646896Y-15367967D01*
X16646896Y-15367967D02*
X16656420Y-15387015D01*
X16656420Y-15387015D02*
X16675468Y-15396539D01*
X16675468Y-15396539D02*
X16694515Y-15396539D01*
X16837373Y-15387015D02*
X16818325Y-15396539D01*
X16818325Y-15396539D02*
X16780230Y-15396539D01*
X16780230Y-15396539D02*
X16761182Y-15387015D01*
X16761182Y-15387015D02*
X16751658Y-15367967D01*
X16751658Y-15367967D02*
X16751658Y-15291777D01*
X16751658Y-15291777D02*
X16761182Y-15272729D01*
X16761182Y-15272729D02*
X16780230Y-15263205D01*
X16780230Y-15263205D02*
X16818325Y-15263205D01*
X16818325Y-15263205D02*
X16837373Y-15272729D01*
X16837373Y-15272729D02*
X16846896Y-15291777D01*
X16846896Y-15291777D02*
X16846896Y-15310824D01*
X16846896Y-15310824D02*
X16751658Y-15329872D01*
X17018325Y-15396539D02*
X17018325Y-15196539D01*
X17018325Y-15387015D02*
X16999277Y-15396539D01*
X16999277Y-15396539D02*
X16961182Y-15396539D01*
X16961182Y-15396539D02*
X16942135Y-15387015D01*
X16942135Y-15387015D02*
X16932611Y-15377491D01*
X16932611Y-15377491D02*
X16923087Y-15358443D01*
X16923087Y-15358443D02*
X16923087Y-15301300D01*
X16923087Y-15301300D02*
X16932611Y-15282253D01*
X16932611Y-15282253D02*
X16942135Y-15272729D01*
X16942135Y-15272729D02*
X16961182Y-15263205D01*
X16961182Y-15263205D02*
X16999277Y-15263205D01*
X16999277Y-15263205D02*
X17018325Y-15272729D01*
X17094516Y-15472729D02*
X17104039Y-15463205D01*
X17104039Y-15463205D02*
X17123087Y-15434634D01*
X17123087Y-15434634D02*
X17132611Y-15415586D01*
X17132611Y-15415586D02*
X17142135Y-15387015D01*
X17142135Y-15387015D02*
X17151658Y-15339396D01*
X17151658Y-15339396D02*
X17151658Y-15301300D01*
X17151658Y-15301300D02*
X17142135Y-15253681D01*
X17142135Y-15253681D02*
X17132611Y-15225110D01*
X17132611Y-15225110D02*
X17123087Y-15206062D01*
X17123087Y-15206062D02*
X17104039Y-15177491D01*
X17104039Y-15177491D02*
X17094516Y-15167967D01*
M02*
