M48
; DRILL file {KiCad 9.0.1} date 2026-07-28T12:37:15-0400
; FORMAT={-:-/ absolute / metric / decimal}
; #@! TF.CreationDate,2026-07-28T12:37:15-04:00
; #@! TF.GenerationSoftware,Kicad,Pcbnew,9.0.1
; #@! TF.FileFunction,Plated,1,2,PTH
FMAT,2
METRIC
; #@! TA.AperFunction,Plated,PTH,ViaDrill
T1C0.300
; #@! TA.AperFunction,Plated,PTH,ViaDrill
T2C0.350
; #@! TA.AperFunction,Plated,PTH,ViaDrill
T3C0.600
; #@! TA.AperFunction,Plated,PTH,ComponentDrill
T4C0.635
; #@! TA.AperFunction,Plated,PTH,ComponentDrill
T5C0.750
; #@! TA.AperFunction,Plated,PTH,ComponentDrill
T6C0.800
; #@! TA.AperFunction,Plated,PTH,ComponentDrill
T7C0.840
; #@! TA.AperFunction,Plated,PTH,ComponentDrill
T8C1.000
; #@! TA.AperFunction,Plated,PTH,ComponentDrill
T9C1.016
; #@! TA.AperFunction,Plated,PTH,ComponentDrill
T10C1.600
; #@! TA.AperFunction,Plated,PTH,ComponentDrill
T11C2.700
%
G90
G05
T1
X108.67Y-98.52
X109.0Y-95.83
X109.992Y-120.867
X110.075Y-106.84
X110.9Y-98.45
X111.46Y-100.12
X115.23Y-122.36
X115.56Y-89.88
X117.725Y-116.695
X118.397Y-114.45
X118.73Y-124.64
X120.015Y-85.51
X120.165Y-83.53
X120.46Y-110.28
X121.53Y-110.27
X121.85Y-64.83
X121.95Y-115.31
X122.01Y-142.317
X122.03Y-123.83
X122.18Y-112.57
X122.32Y-122.32
X122.98Y-66.93
X123.91Y-86.08
X124.03Y-94.43
X124.04Y-64.85
X124.07Y-99.09
X124.28Y-66.94
X124.38Y-108.85
X124.527Y-116.807
X124.91Y-94.24
X125.565Y-71.9
X125.87Y-87.76
X126.68Y-136.13
X126.7Y-142.29
X127.49Y-67.176
X128.96Y-106.82
X129.375Y-67.176
X129.68Y-69.42
X130.48Y-105.36
X130.63Y-114.62
X130.645Y-67.176
X130.82Y-103.1
X131.37Y-108.8
X131.58Y-114.65
X133.605Y-65.67
X135.25Y-119.62
X135.87Y-119.0
X136.33Y-72.63
X137.605Y-92.59
X138.53Y-89.9
X138.6Y-66.08
X138.63Y-69.53
X138.67Y-131.31
X138.68Y-122.33
X138.95Y-143.21
X139.75Y-96.93
X140.15Y-104.89
X140.265Y-138.446
X140.49Y-98.81
X140.66Y-131.11
X142.295Y-73.7
X142.49Y-135.42
X142.55Y-98.365
X142.805Y-138.446
X142.805Y-143.17
X142.83Y-109.48
X142.855Y-111.69
X143.33Y-95.64
X143.83Y-114.97
X144.075Y-138.47
X144.71Y-100.545
X144.74Y-106.47
X144.77Y-133.5
X144.98Y-111.67
X145.345Y-143.17
X145.36Y-73.73
X145.365Y-138.55
X145.41Y-69.685
X146.51Y-64.62
X146.98Y-70.02
X147.24Y-76.016
X147.27Y-78.436
X147.54Y-140.665
X147.63Y-145.1
X148.53Y-73.786
X148.73Y-68.41
X149.85Y-73.786
X150.06Y-106.54
X150.78Y-70.02
X150.82Y-104.81
X150.83Y-102.68
X150.87Y-113.42
X151.08Y-108.46
X151.14Y-73.85
X152.26Y-128.105
X152.37Y-73.85
X152.72Y-97.58
X153.87Y-64.8
X154.25Y-126.59
X154.435Y-76.0
X155.275Y-129.306
X156.545Y-129.306
X157.98Y-72.81
X158.46Y-134.04
X159.425Y-121.875
X160.22Y-103.39
X160.355Y-129.306
X160.47Y-124.06
X160.59Y-100.59
X160.95Y-136.41
X162.38Y-131.43
X162.38Y-133.505
X163.33Y-76.93
X165.63Y-132.86
X166.25Y-143.43
X166.32Y-64.49
X166.43Y-77.01
X167.41Y-131.08
X167.68Y-133.42
X167.95Y-135.625
X168.59Y-66.78
X168.817Y-69.06
X168.817Y-71.66
X168.85Y-64.52
X168.89Y-70.35
X169.78Y-136.48
X169.85Y-144.125
X170.5Y-132.79
X171.275Y-81.95
X172.075Y-83.4
X173.227Y-74.602
X173.6Y-69.44
X176.98Y-90.84
X177.55Y-83.66
T2
X129.88Y-123.42
X130.8Y-123.43
T3
X145.06Y-128.425
X168.925Y-85.45
X181.12Y-85.45
T4
X106.205Y-110.73
X106.205Y-112.0
X106.205Y-113.27
X106.205Y-114.54
X106.205Y-115.81
X106.205Y-117.08
X106.205Y-118.35
X107.475Y-110.73
X107.475Y-112.0
X107.475Y-113.27
X107.475Y-114.54
X107.475Y-115.81
X107.475Y-117.08
X107.475Y-118.35
X153.09Y-142.29
X153.09Y-143.56
X154.36Y-142.29
X154.36Y-143.56
X155.63Y-142.29
X155.63Y-143.56
X156.23Y-66.93
X156.23Y-68.2
X156.9Y-142.29
X156.9Y-143.56
X157.5Y-66.93
X157.5Y-68.2
X158.17Y-142.29
X158.17Y-143.56
X158.77Y-66.93
X158.77Y-68.2
X159.44Y-142.29
X159.44Y-143.56
X160.04Y-66.93
X160.04Y-68.2
X160.71Y-142.29
X160.71Y-143.56
X161.31Y-66.93
X161.31Y-68.2
X162.58Y-66.93
X162.58Y-68.2
X163.85Y-66.93
X163.85Y-68.2
T5
X124.8Y-127.27
T6
X112.57Y-75.24
X112.57Y-77.78
X112.57Y-80.32
X112.57Y-82.86
X112.57Y-85.4
X112.57Y-87.94
X112.57Y-90.48
X112.57Y-93.02
X112.57Y-95.56
X112.57Y-98.1
X112.57Y-100.64
X112.57Y-103.18
X112.57Y-105.72
X112.57Y-108.26
X112.57Y-110.8
X112.57Y-113.34
X112.57Y-115.88
X112.57Y-118.42
X112.57Y-120.96
X112.57Y-123.5
X112.57Y-126.04
X112.57Y-128.58
X112.57Y-131.12
X112.57Y-133.66
X120.23Y-87.9
X122.77Y-87.9
X127.81Y-75.24
X127.81Y-77.78
X127.81Y-80.32
X127.81Y-82.86
X127.81Y-85.4
X127.81Y-87.94
X127.81Y-90.48
X127.81Y-93.02
X127.81Y-95.56
X127.81Y-98.1
X127.81Y-100.64
X127.81Y-103.18
X127.81Y-105.72
X127.81Y-108.26
X127.81Y-110.8
X127.81Y-113.34
X127.81Y-115.88
X127.81Y-118.42
X127.81Y-120.96
X127.81Y-123.5
X127.81Y-126.04
X127.81Y-128.58
X127.81Y-131.12
X127.81Y-133.66
X163.33Y-72.34
X163.33Y-79.96
X166.42Y-72.3
X166.42Y-79.92
T7
X106.84Y-108.14
X106.84Y-120.94
X150.5Y-142.925
X153.64Y-67.565
X163.3Y-142.925
X166.44Y-67.565
T8
X106.14Y-140.175
X106.14Y-142.715
X106.675Y-77.325
X106.675Y-79.865
X106.875Y-85.55
X106.875Y-88.09
X106.875Y-94.6
X106.875Y-97.14
X106.875Y-99.68
X106.875Y-102.22
X136.12Y-88.42
X136.75Y-97.21
X157.14Y-91.66
X161.34Y-110.41
X161.34Y-112.95
X161.34Y-115.49
X162.14Y-91.66
X175.475Y-76.85
X175.475Y-79.39
X175.475Y-81.93
T9
X133.11Y-88.02
X133.11Y-90.56
X133.11Y-93.1
X133.11Y-95.64
X133.11Y-98.18
X133.11Y-100.72
X133.11Y-103.26
X133.11Y-105.8
X133.11Y-108.34
X133.11Y-110.88
X133.11Y-113.42
X133.11Y-115.96
X133.11Y-118.5
X133.11Y-121.04
X133.11Y-123.58
X148.35Y-88.02
X148.35Y-90.56
X148.35Y-93.1
X148.35Y-95.64
X148.35Y-98.18
X148.35Y-100.72
X148.35Y-103.26
X148.35Y-105.8
X148.35Y-108.34
X148.35Y-110.88
X148.35Y-113.42
X148.35Y-115.96
X148.35Y-118.5
X148.35Y-121.04
X148.35Y-123.58
T10
X167.875Y-89.005
X167.875Y-104.245
T11
X181.98Y-136.27
X181.98Y-141.27
X182.43Y-68.53
X182.43Y-73.53
X184.12Y-117.09
X184.12Y-122.09
X189.31Y-136.29
X189.31Y-141.29
X189.51Y-68.59
X189.51Y-73.59
M30
