%TF.GenerationSoftware,KiCad,Pcbnew,9.0.1*%
%TF.CreationDate,2026-07-03T20:18:46-04:00*%
%TF.ProjectId,TMotor_Rev0_5_1_Mark_2_NAU_OpenExo,544d6f74-6f72-45f5-9265-76305f355f31,rev?*%
%TF.SameCoordinates,Original*%
%TF.FileFunction,Paste,Top*%
%TF.FilePolarity,Positive*%
%FSLAX46Y46*%
G04 Gerber Fmt 4.6, Leading zero omitted, Abs format (unit mm)*
G04 Created by KiCad (PCBNEW 9.0.1) date 2026-07-03 20:18:46*
%MOMM*%
%LPD*%
G01*
G04 APERTURE LIST*
G04 Aperture macros list*
%AMRoundRect*
0 Rectangle with rounded corners*
0 $1 Rounding radius*
0 $2 $3 $4 $5 $6 $7 $8 $9 X,Y pos of 4 corners*
0 Add a 4 corners polygon primitive as box body*
4,1,4,$2,$3,$4,$5,$6,$7,$8,$9,$2,$3,0*
0 Add four circle primitives for the rounded corners*
1,1,$1+$1,$2,$3*
1,1,$1+$1,$4,$5*
1,1,$1+$1,$6,$7*
1,1,$1+$1,$8,$9*
0 Add four rect primitives between the rounded corners*
20,1,$1+$1,$2,$3,$4,$5,0*
20,1,$1+$1,$4,$5,$6,$7,0*
20,1,$1+$1,$6,$7,$8,$9,0*
20,1,$1+$1,$8,$9,$2,$3,0*%
G04 Aperture macros list end*
%ADD10R,0.600000X1.500000*%
%ADD11R,1.200000X1.800000*%
%ADD12R,3.429000X1.879600*%
%ADD13RoundRect,0.150000X0.150000X-0.587500X0.150000X0.587500X-0.150000X0.587500X-0.150000X-0.587500X0*%
%ADD14RoundRect,0.150000X-0.587500X-0.150000X0.587500X-0.150000X0.587500X0.150000X-0.587500X0.150000X0*%
%ADD15RoundRect,0.243750X0.243750X0.456250X-0.243750X0.456250X-0.243750X-0.456250X0.243750X-0.456250X0*%
%ADD16R,3.149600X1.955800*%
%TA.AperFunction,Profile*%
%ADD17C,0.254000*%
%TD*%
%TA.AperFunction,Profile*%
%ADD18C,0.050000*%
%TD*%
G04 APERTURE END LIST*
D10*
%TO.C,CAN_L1*%
X167900000Y-137750000D03*
X168900000Y-137750000D03*
D11*
X170200000Y-141650000D03*
X166600000Y-141650000D03*
%TD*%
D10*
%TO.C,CAN_R1*%
X170375000Y-70675000D03*
X169375000Y-70675000D03*
D11*
X168075000Y-66775000D03*
X171675000Y-66775000D03*
%TD*%
D12*
%TO.C,SHUNT0*%
X156450000Y-104965400D03*
X156450000Y-99834600D03*
%TD*%
D13*
%TO.C,D1*%
X117975000Y-131450000D03*
X119875000Y-131450000D03*
X118925000Y-129575000D03*
%TD*%
D14*
%TO.C,D3*%
X104962500Y-125712500D03*
X104962500Y-127612500D03*
X106837500Y-126662500D03*
%TD*%
D15*
%TO.C,D6*%
X145267500Y-130440000D03*
X143392500Y-130440000D03*
%TD*%
D16*
%TO.C,U$6*%
X153425000Y-116123900D03*
X153425000Y-121026100D03*
%TD*%
D13*
%TO.C,D4*%
X138320000Y-103935000D03*
X140220000Y-103935000D03*
X139270000Y-102060000D03*
%TD*%
D17*
X133941100Y-80081100D02*
G75*
G02*
X130441100Y-80081100I-1750000J0D01*
G01*
X130441100Y-80081100D02*
G75*
G02*
X133941100Y-80081100I1750000J0D01*
G01*
D18*
X103410000Y-63980000D02*
X192766340Y-63980000D01*
X192766340Y-146625548D01*
X103410000Y-146625548D01*
X103410000Y-63980000D01*
D17*
X181941100Y-128081100D02*
G75*
G02*
X178441100Y-128081100I-1750000J0D01*
G01*
X178441100Y-128081100D02*
G75*
G02*
X181941100Y-128081100I1750000J0D01*
G01*
X181941100Y-80081100D02*
G75*
G02*
X178441100Y-80081100I-1750000J0D01*
G01*
X178441100Y-80081100D02*
G75*
G02*
X181941100Y-80081100I1750000J0D01*
G01*
M02*
