M48
; DRILL file {KiCad 9.0.1} date 2026-07-03T20:18:54-0400
; FORMAT={-:-/ absolute / metric / decimal}
; #@! TF.CreationDate,2026-07-03T20:18:54-04:00
; #@! TF.GenerationSoftware,Kicad,Pcbnew,9.0.1
; #@! TF.FileFunction,Plated,1,2,PTH
FMAT,2
METRIC
; #@! TA.AperFunction,Plated,PTH,ViaDrill
T1C0.300
; #@! TA.AperFunction,Plated,PTH,ViaDrill
T2C0.350
; #@! TA.AperFunction,Plated,PTH,ViaDrill
T3C0.500
; #@! TA.AperFunction,Plated,PTH,ComponentDrill
T4C0.500
; #@! TA.AperFunction,Plated,PTH,ViaDrill
T5C0.600
; #@! TA.AperFunction,Plated,PTH,ComponentDrill
T6C0.800
; #@! TA.AperFunction,Plated,PTH,ComponentDrill
T7C1.000
; #@! TA.AperFunction,Plated,PTH,ComponentDrill
T8C1.600
; #@! TA.AperFunction,Plated,PTH,ComponentDrill
T9C2.700
%
G90
G05
T1
X104.962Y-124.712
X109.05Y-97.975
X109.275Y-96.95
X110.075Y-106.84
X110.9Y-98.45
X111.46Y-100.12
X115.225Y-87.815
X116.475Y-91.775
X116.48Y-69.92
X117.12Y-125.31
X117.975Y-132.825
X118.396Y-122.72
X118.397Y-114.45
X118.475Y-116.475
X119.65Y-88.75
X120.075Y-128.225
X121.225Y-69.225
X121.95Y-119.84
X121.975Y-122.505
X123.04Y-117.06
X124.99Y-137.81
X125.565Y-71.9
X126.23Y-142.55
X126.835Y-67.176
X126.835Y-71.9
X127.54Y-143.12
X128.6Y-139.91
X128.96Y-106.82
X129.375Y-67.176
X129.375Y-73.6
X129.9Y-139.91
X130.15Y-105.63
X130.175Y-69.225
X130.645Y-67.176
X131.2Y-139.91
X137.987Y-142.438
X138.04Y-74.33
X138.32Y-103.935
X139.54Y-74.38
X139.575Y-92.55
X140.84Y-74.38
X145.267Y-130.44
X145.65Y-78.348
X145.99Y-81.5
X146.92Y-78.348
X149.46Y-78.348
X149.525Y-73.65
X149.625Y-106.825
X150.73Y-73.623
X151.188Y-87.987
X152.11Y-130.06
X153.31Y-130.11
X156.175Y-81.5
X159.27Y-132.525
X159.425Y-121.875
X160.525Y-127.925
X161.825Y-127.925
X162.875Y-98.375
X165.525Y-141.625
X166.325Y-135.325
X167.0Y-66.775
X167.95Y-135.625
X169.85Y-144.125
X171.275Y-81.95
X171.6Y-68.625
X172.075Y-82.95
T2
X129.25Y-122.425
X130.35Y-122.425
T3
X149.41Y-128.55
X168.925Y-85.45
X174.475Y-85.45
T4
X105.195Y-130.985
X105.245Y-135.985
X112.645Y-139.75
X114.71Y-71.64
X116.5Y-116.11
X116.55Y-121.11
X117.645Y-139.7
X118.305Y-104.05
X118.355Y-109.05
X119.71Y-71.59
X123.925Y-103.85
X123.975Y-108.85
X124.63Y-123.28
X124.68Y-128.28
X136.275Y-137.043
X136.325Y-142.043
X137.5Y-71.83
X137.55Y-76.83
X138.48Y-67.16
X139.75Y-137.17
X139.8Y-142.17
X143.48Y-67.11
X146.205Y-70.51
X151.205Y-70.46
X151.675Y-106.28
X151.725Y-111.28
X155.16Y-91.045
X155.21Y-96.045
X156.65Y-78.51
X156.83Y-73.25
X157.175Y-113.175
X157.225Y-118.175
X157.455Y-139.325
X157.635Y-124.827
X157.705Y-135.557
X161.65Y-78.46
X161.83Y-73.2
X162.455Y-139.275
X162.635Y-124.777
X162.705Y-135.507
X162.725Y-88.225
X162.775Y-93.225
X169.055Y-109.3
X169.105Y-114.3
T5
X144.91Y-128.425
T6
X104.77Y-65.64
X104.77Y-68.7
X109.09Y-143.0
X109.35Y-126.295
X109.35Y-136.455
X114.93Y-65.64
X114.93Y-68.7
X119.25Y-143.0
X122.35Y-75.97
X122.35Y-86.13
X122.475Y-133.345
X122.475Y-143.505
X134.3Y-66.55
X134.3Y-76.71
X140.1Y-88.27
X140.1Y-98.43
X140.295Y-133.325
X141.29Y-116.06
X141.29Y-126.22
X142.08Y-70.418
X142.08Y-80.578
X143.13Y-101.23
X143.13Y-111.39
X143.22Y-88.24
X143.22Y-98.4
X144.69Y-116.14
X144.69Y-126.3
X150.455Y-133.325
X152.34Y-84.26
X152.34Y-94.42
X153.205Y-125.322
X153.205Y-135.482
X153.83Y-145.0
X158.2Y-82.175
X159.85Y-90.17
X159.85Y-100.33
X162.875Y-96.875
X162.875Y-107.035
X163.99Y-145.0
X168.36Y-82.175
X170.65Y-123.15
X170.65Y-133.31
T7
X105.47Y-140.15
X105.47Y-142.69
X106.675Y-77.325
X106.675Y-79.865
X106.875Y-85.55
X106.875Y-88.09
X106.875Y-94.6
X106.875Y-97.14
X106.875Y-99.68
X106.875Y-102.22
X106.975Y-106.925
X106.975Y-109.465
X106.975Y-112.005
X106.975Y-114.545
X106.975Y-117.085
X106.975Y-119.625
X106.975Y-122.165
X112.7Y-75.11
X112.7Y-77.65
X112.7Y-80.19
X112.7Y-82.73
X112.7Y-85.27
X112.7Y-87.81
X112.7Y-90.35
X112.7Y-92.89
X112.7Y-95.43
X112.7Y-97.97
X112.7Y-100.51
X112.7Y-103.05
X112.7Y-105.59
X112.7Y-108.13
X112.7Y-110.67
X112.7Y-113.21
X112.7Y-115.75
X112.7Y-118.29
X112.7Y-120.83
X112.7Y-123.37
X112.7Y-125.91
X112.7Y-128.45
X112.7Y-130.99
X112.7Y-133.53
X112.705Y-75.115
X112.705Y-77.655
X112.705Y-80.195
X112.705Y-82.735
X112.705Y-85.275
X112.705Y-87.815
X112.705Y-90.355
X112.705Y-92.895
X112.705Y-95.435
X112.705Y-97.975
X112.705Y-100.515
X112.705Y-103.055
X112.705Y-105.595
X112.705Y-108.135
X112.705Y-110.675
X112.705Y-113.215
X112.705Y-115.755
X112.705Y-118.295
X112.705Y-120.835
X112.705Y-123.375
X112.705Y-125.915
X112.705Y-128.455
X112.705Y-130.995
X112.705Y-133.535
X127.99Y-75.08
X127.99Y-75.085
X127.99Y-77.62
X127.99Y-77.625
X127.99Y-80.16
X127.99Y-80.165
X127.99Y-82.7
X127.99Y-82.705
X127.99Y-85.24
X127.99Y-85.245
X127.99Y-87.78
X127.99Y-87.785
X127.99Y-90.32
X127.99Y-90.325
X127.99Y-92.86
X127.99Y-92.865
X127.99Y-95.4
X127.99Y-95.405
X127.99Y-97.94
X127.99Y-97.945
X127.99Y-100.48
X127.99Y-100.485
X127.99Y-103.02
X127.99Y-103.025
X127.99Y-105.56
X127.99Y-105.565
X127.99Y-108.1
X127.99Y-108.105
X127.99Y-110.64
X127.99Y-110.645
X127.99Y-113.18
X127.99Y-113.185
X127.99Y-115.72
X127.99Y-115.725
X127.99Y-118.26
X127.99Y-118.265
X127.99Y-120.8
X127.99Y-120.805
X127.99Y-123.34
X127.99Y-123.345
X127.99Y-125.88
X127.99Y-125.885
X127.99Y-128.42
X127.99Y-128.425
X127.99Y-130.96
X127.99Y-130.965
X127.99Y-133.5
X127.99Y-133.505
X133.085Y-85.45
X133.085Y-87.99
X133.085Y-90.53
X133.085Y-93.07
X133.085Y-95.61
X133.085Y-98.15
X133.085Y-100.69
X133.085Y-103.23
X133.085Y-105.77
X133.085Y-108.31
X133.085Y-110.85
X133.085Y-113.39
X133.085Y-115.93
X133.085Y-118.47
X133.085Y-121.01
X133.085Y-123.55
X133.085Y-126.09
X133.09Y-85.44
X133.09Y-87.98
X133.09Y-90.52
X133.09Y-93.06
X133.09Y-95.6
X133.09Y-98.14
X133.09Y-100.68
X133.09Y-103.22
X133.09Y-105.76
X133.09Y-108.3
X133.09Y-110.84
X133.09Y-113.38
X133.09Y-115.92
X133.09Y-118.46
X133.09Y-121.0
X133.09Y-123.54
X133.09Y-126.08
X136.23Y-88.94
X136.525Y-130.05
X136.75Y-97.21
X139.065Y-130.05
X145.38Y-139.05
X145.38Y-141.59
X147.92Y-139.05
X147.92Y-141.59
X148.31Y-85.44
X148.31Y-87.98
X148.31Y-90.52
X148.31Y-93.06
X148.31Y-95.6
X148.31Y-98.14
X148.31Y-100.68
X148.31Y-103.22
X148.31Y-105.76
X148.31Y-108.3
X148.31Y-110.84
X148.31Y-113.38
X148.31Y-115.92
X148.31Y-118.46
X148.31Y-121.0
X148.31Y-123.54
X148.31Y-126.08
X148.315Y-85.44
X148.315Y-87.98
X148.315Y-90.52
X148.315Y-93.06
X148.315Y-95.6
X148.315Y-98.14
X148.315Y-100.68
X148.315Y-103.22
X148.315Y-105.76
X148.315Y-108.3
X148.315Y-110.84
X148.315Y-113.38
X148.315Y-115.92
X148.315Y-118.46
X148.315Y-121.0
X148.315Y-123.54
X148.315Y-126.08
X150.46Y-139.05
X150.46Y-141.59
X153.0Y-139.05
X153.0Y-141.59
X156.1Y-67.325
X156.1Y-69.865
X158.64Y-67.325
X158.64Y-69.865
X161.18Y-67.325
X161.18Y-69.865
X161.3Y-111.845
X161.3Y-114.385
X161.3Y-116.925
X163.72Y-67.325
X163.72Y-69.865
X175.475Y-76.85
X175.475Y-79.39
X175.475Y-81.93
X176.6Y-107.775
X181.6Y-107.775
T8
X167.875Y-89.005
X167.875Y-104.245
T9
X182.01Y-136.22
X182.01Y-141.22
X182.55Y-68.56
X182.55Y-73.56
X184.17Y-117.01
X184.17Y-122.01
X189.33Y-136.26
X189.33Y-141.26
X189.46Y-68.58
X189.46Y-73.58
M30
