%TF.GenerationSoftware,KiCad,Pcbnew,9.0.1*%
%TF.CreationDate,2026-07-03T20:18:47-04:00*%
%TF.ProjectId,TMotor_Rev0_5_1_Mark_2_NAU_OpenExo,544d6f74-6f72-45f5-9265-76305f355f31,rev?*%
%TF.SameCoordinates,Original*%
%TF.FileFunction,Soldermask,Top*%
%TF.FilePolarity,Negative*%
%FSLAX46Y46*%
G04 Gerber Fmt 4.6, Leading zero omitted, Abs format (unit mm)*
G04 Created by KiCad (PCBNEW 9.0.1) date 2026-07-03 20:18:47*
%MOMM*%
%LPD*%
G01*
G04 APERTURE LIST*
G04 Aperture macros list*
%AMRoundRect*
0 Rectangle with rounded corners*
0 $1 Rounding radius*
0 $2 $3 $4 $5 $6 $7 $8 $9 X,Y pos of 4 corners*
0 Add a 4 corners polygon primitive as box body*
4,1,4,$2,$3,$4,$5,$6,$7,$8,$9,$2,$3,0*
0 Add four circle primitives for the rounded corners*
1,1,$1+$1,$2,$3*
1,1,$1+$1,$4,$5*
1,1,$1+$1,$6,$7*
1,1,$1+$1,$8,$9*
0 Add four rect primitives between the rounded corners*
20,1,$1+$1,$2,$3,$4,$5,0*
20,1,$1+$1,$4,$5,$6,$7,0*
20,1,$1+$1,$6,$7,$8,$9,0*
20,1,$1+$1,$8,$9,$2,$3,0*%
%AMFreePoly0*
4,1,23,0.550000,-0.750000,0.000000,-0.750000,0.000000,-0.745722,-0.065263,-0.745722,-0.191342,-0.711940,-0.304381,-0.646677,-0.396677,-0.554381,-0.461940,-0.441342,-0.495722,-0.315263,-0.495722,-0.250000,-0.500000,-0.250000,-0.500000,0.250000,-0.495722,0.250000,-0.495722,0.315263,-0.461940,0.441342,-0.396677,0.554381,-0.304381,0.646677,-0.191342,0.711940,-0.065263,0.745722,0.000000,0.745722,
0.000000,0.750000,0.550000,0.750000,0.550000,-0.750000,0.550000,-0.750000,$1*%
%AMFreePoly1*
4,1,23,0.000000,0.745722,0.065263,0.745722,0.191342,0.711940,0.304381,0.646677,0.396677,0.554381,0.461940,0.441342,0.495722,0.315263,0.495722,0.250000,0.500000,0.250000,0.500000,-0.250000,0.495722,-0.250000,0.495722,-0.315263,0.461940,-0.441342,0.396677,-0.554381,0.304381,-0.646677,0.191342,-0.711940,0.065263,-0.745722,0.000000,-0.745722,0.000000,-0.750000,-0.550000,-0.750000,
-0.550000,0.750000,0.000000,0.750000,0.000000,0.745722,0.000000,0.745722,$1*%
G04 Aperture macros list end*
%ADD10C,0.000000*%
%ADD11R,1.211580X1.211580*%
%ADD12C,1.700000*%
%ADD13R,1.700000X1.700000*%
%ADD14R,3.800000X3.800000*%
%ADD15C,4.000000*%
%ADD16C,1.600000*%
%ADD17O,1.600000X1.600000*%
%ADD18FreePoly0,180.000000*%
%ADD19R,1.000000X1.500000*%
%ADD20FreePoly1,180.000000*%
%ADD21R,3.200000X3.200000*%
%ADD22O,3.200000X3.200000*%
%ADD23R,2.000000X2.000000*%
%ADD24C,2.000000*%
%ADD25RoundRect,0.063500X1.714500X-0.939800X1.714500X0.939800X-1.714500X0.939800X-1.714500X-0.939800X0*%
%ADD26RoundRect,0.063500X-0.750000X0.750000X-0.750000X-0.750000X0.750000X-0.750000X0.750000X0.750000X0*%
%ADD27C,1.627000*%
%ADD28RoundRect,0.150000X0.150000X-0.587500X0.150000X0.587500X-0.150000X0.587500X-0.150000X-0.587500X0*%
%ADD29RoundRect,0.150000X-0.587500X-0.150000X0.587500X-0.150000X0.587500X0.150000X-0.587500X0.150000X0*%
%ADD30FreePoly0,0.000000*%
%ADD31FreePoly1,0.000000*%
%ADD32RoundRect,0.243750X0.243750X0.456250X-0.243750X0.456250X-0.243750X-0.456250X0.243750X-0.456250X0*%
%ADD33RoundRect,0.063500X-1.574800X0.977900X-1.574800X-0.977900X1.574800X-0.977900X1.574800X0.977900X0*%
%TA.AperFunction,Profile*%
%ADD34C,0.254000*%
%TD*%
%TA.AperFunction,Profile*%
%ADD35C,0.050000*%
%TD*%
G04 APERTURE END LIST*
%TO.C,INA_VREF_JP4*%
G36*
X150280000Y-76760000D02*
G01*
X148780000Y-76760000D01*
X148780000Y-75260000D01*
X150280000Y-75260000D01*
X150280000Y-76760000D01*
G37*
D10*
%TO.C,CAN_L1*%
G36*
X167276200Y-142626200D02*
G01*
X165923800Y-142626200D01*
X165923800Y-140673800D01*
X167276200Y-140673800D01*
X167276200Y-142626200D01*
G37*
G36*
X168276200Y-138576200D02*
G01*
X167523800Y-138576200D01*
X167523800Y-136923800D01*
X168276200Y-136923800D01*
X168276200Y-138576200D01*
G37*
G36*
X169276200Y-138576200D02*
G01*
X168523800Y-138576200D01*
X168523800Y-136923800D01*
X169276200Y-136923800D01*
X169276200Y-138576200D01*
G37*
G36*
X170876200Y-142626200D02*
G01*
X169523800Y-142626200D01*
X169523800Y-140673800D01*
X170876200Y-140673800D01*
X170876200Y-142626200D01*
G37*
%TO.C,CAN_R1*%
G36*
X168751200Y-67751200D02*
G01*
X167398800Y-67751200D01*
X167398800Y-65798800D01*
X168751200Y-65798800D01*
X168751200Y-67751200D01*
G37*
G36*
X169751200Y-71501200D02*
G01*
X168998800Y-71501200D01*
X168998800Y-69848800D01*
X169751200Y-69848800D01*
X169751200Y-71501200D01*
G37*
G36*
X170751200Y-71501200D02*
G01*
X169998800Y-71501200D01*
X169998800Y-69848800D01*
X170751200Y-69848800D01*
X170751200Y-71501200D01*
G37*
G36*
X172351200Y-67751200D02*
G01*
X170998800Y-67751200D01*
X170998800Y-65798800D01*
X172351200Y-65798800D01*
X172351200Y-67751200D01*
G37*
%TO.C,INA_VREF_JP6*%
G36*
X161275000Y-130875000D02*
G01*
X159775000Y-130875000D01*
X159775000Y-129375000D01*
X161275000Y-129375000D01*
X161275000Y-130875000D01*
G37*
%TO.C,INA_VREF_JP7*%
G36*
X124975000Y-68800000D02*
G01*
X126475000Y-68800000D01*
X126475000Y-70300000D01*
X124975000Y-70300000D01*
X124975000Y-68800000D01*
G37*
%TO.C,INA_VREF_JP3*%
G36*
X130650000Y-140660000D02*
G01*
X129150000Y-140660000D01*
X129150000Y-139160000D01*
X130650000Y-139160000D01*
X130650000Y-140660000D01*
G37*
%TD*%
D11*
%TO.C,C27*%
X156829941Y-73249970D03*
X161829941Y-73199970D03*
%TD*%
D12*
%TO.C,USB0*%
X148315000Y-123540000D03*
X148315000Y-121000000D03*
X148315000Y-118460000D03*
X148315000Y-115920000D03*
X148315000Y-113380000D03*
X148315000Y-110840000D03*
X148315000Y-108300000D03*
X148315000Y-105760000D03*
X148315000Y-103220000D03*
X148315000Y-100680000D03*
X148315000Y-98140000D03*
X148315000Y-95600000D03*
X148315000Y-93060000D03*
X148315000Y-90520000D03*
X148315000Y-87980000D03*
X133085000Y-87990000D03*
X133085000Y-90530000D03*
X133085000Y-93070000D03*
X133085000Y-95610000D03*
X133085000Y-98150000D03*
X133085000Y-100690000D03*
X133085000Y-103230000D03*
X133085000Y-105770000D03*
X133085000Y-108310000D03*
X133085000Y-110850000D03*
X133085000Y-113390000D03*
X133085000Y-115930000D03*
X133085000Y-118470000D03*
X133085000Y-121010000D03*
X133085000Y-123550000D03*
D13*
X148315000Y-126080000D03*
X133085000Y-126090000D03*
D12*
X133085000Y-85450000D03*
X148315000Y-85440000D03*
%TD*%
D14*
%TO.C,J11*%
X182010000Y-136220000D03*
D15*
X182010000Y-141220000D03*
%TD*%
D16*
%TO.C,R17*%
X142080000Y-80577550D03*
D17*
X142080000Y-70417550D03*
%TD*%
D18*
%TO.C,INA_VREF_JP4*%
X150830000Y-76010000D03*
D19*
X149530000Y-76010000D03*
D20*
X148230000Y-76010000D03*
%TD*%
D16*
%TO.C,R5*%
X140100000Y-88270000D03*
D17*
X140100000Y-98430000D03*
%TD*%
D11*
%TO.C,C22*%
X139799970Y-142170059D03*
X139749970Y-137170059D03*
%TD*%
D21*
%TO.C,D2*%
X167875000Y-104245000D03*
D22*
X167875000Y-89005000D03*
%TD*%
D11*
%TO.C,C19*%
X157634940Y-124827420D03*
X162634940Y-124777420D03*
%TD*%
%TO.C,C29*%
X156650000Y-78510000D03*
X161650000Y-78460000D03*
%TD*%
D13*
%TO.C,J14*%
X148310000Y-126080000D03*
D12*
X148310000Y-123540000D03*
X148310000Y-121000000D03*
X148310000Y-118460000D03*
X148310000Y-115920000D03*
X148310000Y-113380000D03*
X148310000Y-110840000D03*
X148310000Y-108300000D03*
X148310000Y-105760000D03*
X148310000Y-103220000D03*
X148310000Y-100680000D03*
X148310000Y-98140000D03*
X148310000Y-95600000D03*
X148310000Y-93060000D03*
X148310000Y-90520000D03*
X148310000Y-87980000D03*
X148310000Y-85440000D03*
%TD*%
D16*
%TO.C,R11*%
X170650000Y-123150000D03*
D17*
X170650000Y-133310000D03*
%TD*%
D12*
%TO.C,U10*%
X127990000Y-130965000D03*
X127990000Y-128425000D03*
X127990000Y-125885000D03*
X127990000Y-123345000D03*
X127990000Y-97945000D03*
X112705000Y-128455000D03*
X127990000Y-120805000D03*
X127990000Y-118265000D03*
X127990000Y-115725000D03*
X127990000Y-113185000D03*
X127990000Y-110645000D03*
X127990000Y-108105000D03*
X127990000Y-105565000D03*
X127990000Y-103025000D03*
X127990000Y-100485000D03*
X112705000Y-100515000D03*
X112705000Y-103055000D03*
X112705000Y-105595000D03*
X112705000Y-108135000D03*
X112705000Y-110675000D03*
X112705000Y-113215000D03*
X112705000Y-115755000D03*
X112705000Y-118295000D03*
X112705000Y-120835000D03*
X112705000Y-123375000D03*
X112705000Y-125915000D03*
X127990000Y-95405000D03*
X127990000Y-92865000D03*
X127990000Y-90325000D03*
X127990000Y-87785000D03*
X127990000Y-85245000D03*
X127990000Y-82705000D03*
X127990000Y-80165000D03*
X127990000Y-77625000D03*
X127990000Y-75085000D03*
X112705000Y-75115000D03*
X112705000Y-77655000D03*
X112705000Y-80195000D03*
X112705000Y-82735000D03*
X112705000Y-85275000D03*
X112705000Y-87815000D03*
X112705000Y-90355000D03*
X112705000Y-92895000D03*
X112705000Y-95435000D03*
X112705000Y-130995000D03*
D13*
X127990000Y-133505000D03*
D12*
X112705000Y-97975000D03*
D13*
X112705000Y-133535000D03*
%TD*%
D16*
%TO.C,R19*%
X119250000Y-143000000D03*
D17*
X109090000Y-143000000D03*
%TD*%
D16*
%TO.C,R6*%
X122350000Y-75970000D03*
D17*
X122350000Y-86130000D03*
%TD*%
D16*
%TO.C,R26*%
X114930000Y-65640000D03*
D17*
X104770000Y-65640000D03*
%TD*%
D16*
%TO.C,R21*%
X152340000Y-84260000D03*
D17*
X152340000Y-94420000D03*
%TD*%
D13*
%TO.C,J1*%
X106975000Y-106925000D03*
D12*
X106975000Y-109465000D03*
X106975000Y-112005000D03*
X106975000Y-114545000D03*
X106975000Y-117085000D03*
X106975000Y-119625000D03*
X106975000Y-122165000D03*
%TD*%
D16*
%TO.C,R4*%
X109350000Y-136455000D03*
D17*
X109350000Y-126295000D03*
%TD*%
D16*
%TO.C,R24*%
X141290000Y-126220000D03*
D17*
X141290000Y-116060000D03*
%TD*%
D13*
%TO.C,J16*%
X127990000Y-133500000D03*
D12*
X127990000Y-130960000D03*
X127990000Y-128420000D03*
X127990000Y-125880000D03*
X127990000Y-123340000D03*
X127990000Y-120800000D03*
X127990000Y-118260000D03*
X127990000Y-115720000D03*
X127990000Y-113180000D03*
X127990000Y-110640000D03*
X127990000Y-108100000D03*
X127990000Y-105560000D03*
X127990000Y-103020000D03*
X127990000Y-100480000D03*
X127990000Y-97940000D03*
X127990000Y-95400000D03*
X127990000Y-92860000D03*
X127990000Y-90320000D03*
X127990000Y-87780000D03*
X127990000Y-85240000D03*
X127990000Y-82700000D03*
X127990000Y-80160000D03*
X127990000Y-77620000D03*
X127990000Y-75080000D03*
%TD*%
D11*
%TO.C,C28*%
X137500030Y-71829941D03*
X137550030Y-76829941D03*
%TD*%
D23*
%TO.C,C1*%
X176600000Y-107775000D03*
D24*
X181600000Y-107775000D03*
%TD*%
D16*
%TO.C,R1*%
X162875000Y-96875000D03*
D17*
X162875000Y-107035000D03*
%TD*%
D14*
%TO.C,J8*%
X189460000Y-68580000D03*
D15*
X189460000Y-73580000D03*
%TD*%
D13*
%TO.C,LEFT_LC_CONN1*%
X153000000Y-139050000D03*
D12*
X153000000Y-141590000D03*
X150460000Y-139050000D03*
X150460000Y-141590000D03*
X147920000Y-139050000D03*
X147920000Y-141590000D03*
X145380000Y-139050000D03*
X145380000Y-141590000D03*
%TD*%
D14*
%TO.C,J10*%
X184170000Y-117010000D03*
D15*
X184170000Y-122010000D03*
%TD*%
D11*
%TO.C,C18*%
X117645060Y-139700030D03*
X112645060Y-139750030D03*
%TD*%
%TO.C,C7*%
X116550000Y-121110000D03*
X116500000Y-116110000D03*
%TD*%
D16*
%TO.C,R12*%
X158200000Y-82175000D03*
D17*
X168360000Y-82175000D03*
%TD*%
D13*
%TO.C,J10*%
X112700000Y-133530000D03*
D12*
X112700000Y-130990000D03*
X112700000Y-128450000D03*
X112700000Y-125910000D03*
X112700000Y-123370000D03*
X112700000Y-120830000D03*
X112700000Y-118290000D03*
X112700000Y-115750000D03*
X112700000Y-113210000D03*
X112700000Y-110670000D03*
X112700000Y-108130000D03*
X112700000Y-105590000D03*
X112700000Y-103050000D03*
X112700000Y-100510000D03*
X112700000Y-97970000D03*
X112700000Y-95430000D03*
X112700000Y-92890000D03*
X112700000Y-90350000D03*
X112700000Y-87810000D03*
X112700000Y-85270000D03*
X112700000Y-82730000D03*
X112700000Y-80190000D03*
X112700000Y-77650000D03*
X112700000Y-75110000D03*
%TD*%
D11*
%TO.C,C21*%
X136324970Y-142042610D03*
X136274970Y-137042610D03*
%TD*%
D13*
%TO.C,J5*%
X105470000Y-142690000D03*
D12*
X105470000Y-140150000D03*
%TD*%
D11*
%TO.C,C9*%
X162775000Y-93225000D03*
X162725000Y-88225000D03*
%TD*%
%TO.C,C4*%
X169105000Y-114299614D03*
X169055000Y-109299614D03*
%TD*%
D13*
%TO.C,J2*%
X106875000Y-94600000D03*
D12*
X106875000Y-97140000D03*
X106875000Y-99680000D03*
X106875000Y-102220000D03*
%TD*%
D11*
%TO.C,C2*%
X118355000Y-109050000D03*
X118305000Y-104050000D03*
%TD*%
%TO.C,C6*%
X123975000Y-108850000D03*
X123925000Y-103850000D03*
%TD*%
D18*
%TO.C,INA_VREF_JP6*%
X161825000Y-130125000D03*
D19*
X160525000Y-130125000D03*
D20*
X159225000Y-130125000D03*
%TD*%
D13*
%TO.C,J13*%
X133090000Y-126080000D03*
D12*
X133090000Y-123540000D03*
X133090000Y-121000000D03*
X133090000Y-118460000D03*
X133090000Y-115920000D03*
X133090000Y-113380000D03*
X133090000Y-110840000D03*
X133090000Y-108300000D03*
X133090000Y-105760000D03*
X133090000Y-103220000D03*
X133090000Y-100680000D03*
X133090000Y-98140000D03*
X133090000Y-95600000D03*
X133090000Y-93060000D03*
X133090000Y-90520000D03*
X133090000Y-87980000D03*
X133090000Y-85440000D03*
%TD*%
D14*
%TO.C,J9*%
X182550000Y-68560000D03*
D15*
X182550000Y-73560000D03*
%TD*%
D11*
%TO.C,C8*%
X124680000Y-128280000D03*
X124630000Y-123280000D03*
%TD*%
D25*
%TO.C,SHUNT0*%
X156450000Y-104965400D03*
X156450000Y-99834600D03*
%TD*%
D24*
%TO.C,TP1*%
X136230000Y-88940000D03*
%TD*%
D26*
%TO.C,PS1*%
X161300000Y-111845000D03*
D27*
X161300000Y-114385000D03*
X161300000Y-116925000D03*
%TD*%
D13*
%TO.C,RIGHT_LC_CONN1*%
X156100000Y-69865000D03*
D12*
X156100000Y-67325000D03*
X158640000Y-69865000D03*
X158640000Y-67325000D03*
X161180000Y-69865000D03*
X161180000Y-67325000D03*
X163720000Y-69865000D03*
X163720000Y-67325000D03*
%TD*%
D11*
%TO.C,C3*%
X151675030Y-106279941D03*
X151725030Y-111279941D03*
%TD*%
%TO.C,C5*%
X155209970Y-96045119D03*
X155159970Y-91045119D03*
%TD*%
D24*
%TO.C,TP2*%
X136750000Y-97210000D03*
%TD*%
D13*
%TO.C,J6*%
X106675000Y-77325000D03*
D12*
X106675000Y-79865000D03*
%TD*%
D13*
%TO.C,J3*%
X106875000Y-88090000D03*
D12*
X106875000Y-85550000D03*
%TD*%
D11*
%TO.C,C25*%
X157705000Y-135557450D03*
X162705000Y-135507450D03*
%TD*%
D28*
%TO.C,D1*%
X117975000Y-131450000D03*
X119875000Y-131450000D03*
X118925000Y-129575000D03*
%TD*%
D16*
%TO.C,R25*%
X143220000Y-88240000D03*
D17*
X143220000Y-98400000D03*
%TD*%
D16*
%TO.C,R23*%
X153830000Y-145000000D03*
D17*
X163990000Y-145000000D03*
%TD*%
D13*
%TO.C,J7*%
X175475000Y-76850000D03*
D12*
X175475000Y-79390000D03*
X175475000Y-81930000D03*
%TD*%
D16*
%TO.C,R16*%
X153205000Y-135482450D03*
D17*
X153205000Y-125322450D03*
%TD*%
D11*
%TO.C,C15*%
X157175000Y-113175000D03*
X157225000Y-118175000D03*
%TD*%
D16*
%TO.C,R22*%
X114930000Y-68700000D03*
D17*
X104770000Y-68700000D03*
%TD*%
D29*
%TO.C,D3*%
X104962500Y-125712500D03*
X104962500Y-127612500D03*
X106837500Y-126662500D03*
%TD*%
D13*
%TO.C,J4*%
X139065000Y-130050000D03*
D12*
X136525000Y-130050000D03*
%TD*%
D11*
%TO.C,C23*%
X105195000Y-130985386D03*
X105245000Y-135985386D03*
%TD*%
D30*
%TO.C,INA_VREF_JP7*%
X124425000Y-69550000D03*
D19*
X125725000Y-69550000D03*
D31*
X127025000Y-69550000D03*
%TD*%
D11*
%TO.C,C20*%
X146204940Y-70510000D03*
X151204940Y-70460000D03*
%TD*%
D32*
%TO.C,D6*%
X145267500Y-130440000D03*
X143392500Y-130440000D03*
%TD*%
D18*
%TO.C,INA_VREF_JP3*%
X131200000Y-139910000D03*
D19*
X129900000Y-139910000D03*
D20*
X128600000Y-139910000D03*
%TD*%
D16*
%TO.C,R7*%
X143130000Y-111390000D03*
D17*
X143130000Y-101230000D03*
%TD*%
D33*
%TO.C,U$6*%
X153425000Y-116123900D03*
X153425000Y-121026100D03*
%TD*%
D11*
%TO.C,C24*%
X157454941Y-139324970D03*
X162454941Y-139274970D03*
%TD*%
D16*
%TO.C,R2*%
X159850000Y-100330000D03*
D17*
X159850000Y-90170000D03*
%TD*%
D14*
%TO.C,J12*%
X189330000Y-136260000D03*
D15*
X189330000Y-141260000D03*
%TD*%
D16*
%TO.C,R18*%
X134300000Y-66550000D03*
D17*
X134300000Y-76710000D03*
%TD*%
D16*
%TO.C,R15*%
X122475000Y-143505000D03*
D17*
X122475000Y-133345000D03*
%TD*%
D16*
%TO.C,R20*%
X144690000Y-126300000D03*
D17*
X144690000Y-116140000D03*
%TD*%
D28*
%TO.C,D4*%
X138320000Y-103935000D03*
X140220000Y-103935000D03*
X139270000Y-102060000D03*
%TD*%
D16*
%TO.C,R3*%
X150455000Y-133325000D03*
D17*
X140295000Y-133325000D03*
%TD*%
D11*
%TO.C,C30*%
X138479881Y-67159970D03*
X143479881Y-67109970D03*
%TD*%
%TO.C,C26*%
X119710000Y-71590000D03*
X114710000Y-71640000D03*
%TD*%
D34*
X133941100Y-80081100D02*
G75*
G02*
X130441100Y-80081100I-1750000J0D01*
G01*
X130441100Y-80081100D02*
G75*
G02*
X133941100Y-80081100I1750000J0D01*
G01*
D35*
X103410000Y-63980000D02*
X192766340Y-63980000D01*
X192766340Y-146625548D01*
X103410000Y-146625548D01*
X103410000Y-63980000D01*
D34*
X181941100Y-128081100D02*
G75*
G02*
X178441100Y-128081100I-1750000J0D01*
G01*
X178441100Y-128081100D02*
G75*
G02*
X181941100Y-128081100I1750000J0D01*
G01*
X181941100Y-80081100D02*
G75*
G02*
X178441100Y-80081100I-1750000J0D01*
G01*
X178441100Y-80081100D02*
G75*
G02*
X181941100Y-80081100I1750000J0D01*
G01*
M02*
