%TF.GenerationSoftware,KiCad,Pcbnew,9.0.1*%
%TF.CreationDate,2026-07-03T20:18:47-04:00*%
%TF.ProjectId,TMotor_Rev0_5_1_Mark_2_NAU_OpenExo,544d6f74-6f72-45f5-9265-76305f355f31,rev?*%
%TF.SameCoordinates,Original*%
%TF.FileFunction,Soldermask,Bot*%
%TF.FilePolarity,Negative*%
%FSLAX46Y46*%
G04 Gerber Fmt 4.6, Leading zero omitted, Abs format (unit mm)*
G04 Created by KiCad (PCBNEW 9.0.1) date 2026-07-03 20:18:47*
%MOMM*%
%LPD*%
G01*
G04 APERTURE LIST*
G04 Aperture macros list*
%AMRoundRect*
0 Rectangle with rounded corners*
0 $1 Rounding radius*
0 $2 $3 $4 $5 $6 $7 $8 $9 X,Y pos of 4 corners*
0 Add a 4 corners polygon primitive as box body*
4,1,4,$2,$3,$4,$5,$6,$7,$8,$9,$2,$3,0*
0 Add four circle primitives for the rounded corners*
1,1,$1+$1,$2,$3*
1,1,$1+$1,$4,$5*
1,1,$1+$1,$6,$7*
1,1,$1+$1,$8,$9*
0 Add four rect primitives between the rounded corners*
20,1,$1+$1,$2,$3,$4,$5,0*
20,1,$1+$1,$4,$5,$6,$7,0*
20,1,$1+$1,$6,$7,$8,$9,0*
20,1,$1+$1,$8,$9,$2,$3,0*%
%AMFreePoly0*
4,1,23,0.550000,-0.750000,0.000000,-0.750000,0.000000,-0.745722,-0.065263,-0.745722,-0.191342,-0.711940,-0.304381,-0.646677,-0.396677,-0.554381,-0.461940,-0.441342,-0.495722,-0.315263,-0.495722,-0.250000,-0.500000,-0.250000,-0.500000,0.250000,-0.495722,0.250000,-0.495722,0.315263,-0.461940,0.441342,-0.396677,0.554381,-0.304381,0.646677,-0.191342,0.711940,-0.065263,0.745722,0.000000,0.745722,
0.000000,0.750000,0.550000,0.750000,0.550000,-0.750000,0.550000,-0.750000,$1*%
%AMFreePoly1*
4,1,23,0.000000,0.745722,0.065263,0.745722,0.191342,0.711940,0.304381,0.646677,0.396677,0.554381,0.461940,0.441342,0.495722,0.315263,0.495722,0.250000,0.500000,0.250000,0.500000,-0.250000,0.495722,-0.250000,0.495722,-0.315263,0.461940,-0.441342,0.396677,-0.554381,0.304381,-0.646677,0.191342,-0.711940,0.065263,-0.745722,0.000000,-0.745722,0.000000,-0.750000,-0.550000,-0.750000,
-0.550000,0.750000,0.000000,0.750000,0.000000,0.745722,0.000000,0.745722,$1*%
%AMFreePoly2*
4,1,23,0.500000,-0.750000,0.000000,-0.750000,0.000000,-0.745722,-0.065263,-0.745722,-0.191342,-0.711940,-0.304381,-0.646677,-0.396677,-0.554381,-0.461940,-0.441342,-0.495722,-0.315263,-0.495722,-0.250000,-0.500000,-0.250000,-0.500000,0.250000,-0.495722,0.250000,-0.495722,0.315263,-0.461940,0.441342,-0.396677,0.554381,-0.304381,0.646677,-0.191342,0.711940,-0.065263,0.745722,0.000000,0.745722,
0.000000,0.750000,0.500000,0.750000,0.500000,-0.750000,0.500000,-0.750000,$1*%
%AMFreePoly3*
4,1,23,0.000000,0.745722,0.065263,0.745722,0.191342,0.711940,0.304381,0.646677,0.396677,0.554381,0.461940,0.441342,0.495722,0.315263,0.495722,0.250000,0.500000,0.250000,0.500000,-0.250000,0.495722,-0.250000,0.495722,-0.315263,0.461940,-0.441342,0.396677,-0.554381,0.304381,-0.646677,0.191342,-0.711940,0.065263,-0.745722,0.000000,-0.745722,0.000000,-0.750000,-0.500000,-0.750000,
-0.500000,0.750000,0.000000,0.750000,0.000000,0.745722,0.000000,0.745722,$1*%
G04 Aperture macros list end*
%ADD10R,1.211580X1.211580*%
%ADD11C,1.700000*%
%ADD12R,1.700000X1.700000*%
%ADD13R,3.800000X3.800000*%
%ADD14C,4.000000*%
%ADD15C,1.600000*%
%ADD16O,1.600000X1.600000*%
%ADD17R,3.200000X3.200000*%
%ADD18O,3.200000X3.200000*%
%ADD19R,2.000000X2.000000*%
%ADD20C,2.000000*%
%ADD21RoundRect,0.063500X-0.750000X0.750000X-0.750000X-0.750000X0.750000X-0.750000X0.750000X0.750000X0*%
%ADD22C,1.627000*%
%ADD23RoundRect,0.063500X0.279400X-1.092200X0.279400X1.092200X-0.279400X1.092200X-0.279400X-1.092200X0*%
%ADD24FreePoly0,270.000000*%
%ADD25R,1.500000X1.000000*%
%ADD26FreePoly1,270.000000*%
%ADD27R,1.409700X0.355600*%
%ADD28RoundRect,0.150000X-0.587500X-0.150000X0.587500X-0.150000X0.587500X0.150000X-0.587500X0.150000X0*%
%ADD29RoundRect,0.090875X-0.957625X-0.272625X0.957625X-0.272625X0.957625X0.272625X-0.957625X0.272625X0*%
%ADD30R,1.407700X0.355600*%
%ADD31FreePoly0,0.000000*%
%ADD32R,1.000000X1.500000*%
%ADD33FreePoly1,0.000000*%
%ADD34FreePoly0,180.000000*%
%ADD35FreePoly1,180.000000*%
%ADD36RoundRect,0.063500X-0.279400X1.092200X-0.279400X-1.092200X0.279400X-1.092200X0.279400X1.092200X0*%
%ADD37FreePoly2,0.000000*%
%ADD38FreePoly3,0.000000*%
%ADD39RoundRect,0.063500X0.279400X-0.730250X0.279400X0.730250X-0.279400X0.730250X-0.279400X-0.730250X0*%
%TA.AperFunction,Profile*%
%ADD40C,0.254000*%
%TD*%
%TA.AperFunction,Profile*%
%ADD41C,0.050000*%
%TD*%
G04 APERTURE END LIST*
%TO.C,INA_PWR_JP7*%
G36*
X118625000Y-66975000D02*
G01*
X120125000Y-66975000D01*
X120125000Y-68475000D01*
X118625000Y-68475000D01*
X118625000Y-66975000D01*
G37*
%TO.C,INA_EXC_JP3*%
G36*
X141610000Y-139090000D02*
G01*
X143110000Y-139090000D01*
X143110000Y-140590000D01*
X141610000Y-140590000D01*
X141610000Y-139090000D01*
G37*
%TO.C,INA_EXC_JP6*%
G36*
X151360000Y-130810000D02*
G01*
X152860000Y-130810000D01*
X152860000Y-129310000D01*
X151360000Y-129310000D01*
X151360000Y-130810000D01*
G37*
%TO.C,INA_EXC_JP7*%
G36*
X140290000Y-73630000D02*
G01*
X138790000Y-73630000D01*
X138790000Y-75130000D01*
X140290000Y-75130000D01*
X140290000Y-73630000D01*
G37*
%TO.C,INA_PWR_JP3*%
G36*
X137225000Y-138900000D02*
G01*
X138725000Y-138900000D01*
X138725000Y-140400000D01*
X137225000Y-140400000D01*
X137225000Y-138900000D01*
G37*
%TO.C,TeensyPowerJP1*%
G36*
X109470000Y-134410000D02*
G01*
X109770000Y-134410000D01*
X109770000Y-132910000D01*
X109470000Y-132910000D01*
X109470000Y-134410000D01*
G37*
%TO.C,INA_PWR_JP6*%
G36*
X165950000Y-131750000D02*
G01*
X167450000Y-131750000D01*
X167450000Y-133250000D01*
X165950000Y-133250000D01*
X165950000Y-131750000D01*
G37*
%TO.C,INA_PWR_JP4*%
G36*
X153900000Y-80100000D02*
G01*
X152400000Y-80100000D01*
X152400000Y-81600000D01*
X153900000Y-81600000D01*
X153900000Y-80100000D01*
G37*
%TO.C,INA_EXC_JP4*%
G36*
X157080000Y-75320000D02*
G01*
X155580000Y-75320000D01*
X155580000Y-76820000D01*
X157080000Y-76820000D01*
X157080000Y-75320000D01*
G37*
%TD*%
D10*
%TO.C,C27*%
X156829941Y-73249970D03*
X161829941Y-73199970D03*
%TD*%
D11*
%TO.C,USB0*%
X148315000Y-123540000D03*
X148315000Y-121000000D03*
X148315000Y-118460000D03*
X148315000Y-115920000D03*
X148315000Y-113380000D03*
X148315000Y-110840000D03*
X148315000Y-108300000D03*
X148315000Y-105760000D03*
X148315000Y-103220000D03*
X148315000Y-100680000D03*
X148315000Y-98140000D03*
X148315000Y-95600000D03*
X148315000Y-93060000D03*
X148315000Y-90520000D03*
X148315000Y-87980000D03*
X133085000Y-87990000D03*
X133085000Y-90530000D03*
X133085000Y-93070000D03*
X133085000Y-95610000D03*
X133085000Y-98150000D03*
X133085000Y-100690000D03*
X133085000Y-103230000D03*
X133085000Y-105770000D03*
X133085000Y-108310000D03*
X133085000Y-110850000D03*
X133085000Y-113390000D03*
X133085000Y-115930000D03*
X133085000Y-118470000D03*
X133085000Y-121010000D03*
X133085000Y-123550000D03*
D12*
X148315000Y-126080000D03*
X133085000Y-126090000D03*
D11*
X133085000Y-85450000D03*
X148315000Y-85440000D03*
%TD*%
D13*
%TO.C,J11*%
X182010000Y-136220000D03*
D14*
X182010000Y-141220000D03*
%TD*%
D15*
%TO.C,R17*%
X142080000Y-80577550D03*
D16*
X142080000Y-70417550D03*
%TD*%
D15*
%TO.C,R5*%
X140100000Y-88270000D03*
D16*
X140100000Y-98430000D03*
%TD*%
D10*
%TO.C,C22*%
X139799970Y-142170059D03*
X139749970Y-137170059D03*
%TD*%
D17*
%TO.C,D2*%
X167875000Y-104245000D03*
D18*
X167875000Y-89005000D03*
%TD*%
D10*
%TO.C,C19*%
X157634940Y-124827420D03*
X162634940Y-124777420D03*
%TD*%
%TO.C,C29*%
X156650000Y-78510000D03*
X161650000Y-78460000D03*
%TD*%
D12*
%TO.C,J14*%
X148310000Y-126080000D03*
D11*
X148310000Y-123540000D03*
X148310000Y-121000000D03*
X148310000Y-118460000D03*
X148310000Y-115920000D03*
X148310000Y-113380000D03*
X148310000Y-110840000D03*
X148310000Y-108300000D03*
X148310000Y-105760000D03*
X148310000Y-103220000D03*
X148310000Y-100680000D03*
X148310000Y-98140000D03*
X148310000Y-95600000D03*
X148310000Y-93060000D03*
X148310000Y-90520000D03*
X148310000Y-87980000D03*
X148310000Y-85440000D03*
%TD*%
D15*
%TO.C,R11*%
X170650000Y-123150000D03*
D16*
X170650000Y-133310000D03*
%TD*%
D11*
%TO.C,U10*%
X127990000Y-130965000D03*
X127990000Y-128425000D03*
X127990000Y-125885000D03*
X127990000Y-123345000D03*
X127990000Y-97945000D03*
X112705000Y-128455000D03*
X127990000Y-120805000D03*
X127990000Y-118265000D03*
X127990000Y-115725000D03*
X127990000Y-113185000D03*
X127990000Y-110645000D03*
X127990000Y-108105000D03*
X127990000Y-105565000D03*
X127990000Y-103025000D03*
X127990000Y-100485000D03*
X112705000Y-100515000D03*
X112705000Y-103055000D03*
X112705000Y-105595000D03*
X112705000Y-108135000D03*
X112705000Y-110675000D03*
X112705000Y-113215000D03*
X112705000Y-115755000D03*
X112705000Y-118295000D03*
X112705000Y-120835000D03*
X112705000Y-123375000D03*
X112705000Y-125915000D03*
X127990000Y-95405000D03*
X127990000Y-92865000D03*
X127990000Y-90325000D03*
X127990000Y-87785000D03*
X127990000Y-85245000D03*
X127990000Y-82705000D03*
X127990000Y-80165000D03*
X127990000Y-77625000D03*
X127990000Y-75085000D03*
X112705000Y-75115000D03*
X112705000Y-77655000D03*
X112705000Y-80195000D03*
X112705000Y-82735000D03*
X112705000Y-85275000D03*
X112705000Y-87815000D03*
X112705000Y-90355000D03*
X112705000Y-92895000D03*
X112705000Y-95435000D03*
X112705000Y-130995000D03*
D12*
X127990000Y-133505000D03*
D11*
X112705000Y-97975000D03*
D12*
X112705000Y-133535000D03*
%TD*%
D15*
%TO.C,R19*%
X119250000Y-143000000D03*
D16*
X109090000Y-143000000D03*
%TD*%
D15*
%TO.C,R6*%
X122350000Y-75970000D03*
D16*
X122350000Y-86130000D03*
%TD*%
D15*
%TO.C,R26*%
X114930000Y-65640000D03*
D16*
X104770000Y-65640000D03*
%TD*%
D15*
%TO.C,R21*%
X152340000Y-84260000D03*
D16*
X152340000Y-94420000D03*
%TD*%
D12*
%TO.C,J1*%
X106975000Y-106925000D03*
D11*
X106975000Y-109465000D03*
X106975000Y-112005000D03*
X106975000Y-114545000D03*
X106975000Y-117085000D03*
X106975000Y-119625000D03*
X106975000Y-122165000D03*
%TD*%
D15*
%TO.C,R4*%
X109350000Y-136455000D03*
D16*
X109350000Y-126295000D03*
%TD*%
D15*
%TO.C,R24*%
X141290000Y-126220000D03*
D16*
X141290000Y-116060000D03*
%TD*%
D12*
%TO.C,J16*%
X127990000Y-133500000D03*
D11*
X127990000Y-130960000D03*
X127990000Y-128420000D03*
X127990000Y-125880000D03*
X127990000Y-123340000D03*
X127990000Y-120800000D03*
X127990000Y-118260000D03*
X127990000Y-115720000D03*
X127990000Y-113180000D03*
X127990000Y-110640000D03*
X127990000Y-108100000D03*
X127990000Y-105560000D03*
X127990000Y-103020000D03*
X127990000Y-100480000D03*
X127990000Y-97940000D03*
X127990000Y-95400000D03*
X127990000Y-92860000D03*
X127990000Y-90320000D03*
X127990000Y-87780000D03*
X127990000Y-85240000D03*
X127990000Y-82700000D03*
X127990000Y-80160000D03*
X127990000Y-77620000D03*
X127990000Y-75080000D03*
%TD*%
D10*
%TO.C,C28*%
X137500030Y-71829941D03*
X137550030Y-76829941D03*
%TD*%
D19*
%TO.C,C1*%
X176600000Y-107775000D03*
D20*
X181600000Y-107775000D03*
%TD*%
D15*
%TO.C,R1*%
X162875000Y-96875000D03*
D16*
X162875000Y-107035000D03*
%TD*%
D13*
%TO.C,J8*%
X189460000Y-68580000D03*
D14*
X189460000Y-73580000D03*
%TD*%
D12*
%TO.C,LEFT_LC_CONN1*%
X153000000Y-139050000D03*
D11*
X153000000Y-141590000D03*
X150460000Y-139050000D03*
X150460000Y-141590000D03*
X147920000Y-139050000D03*
X147920000Y-141590000D03*
X145380000Y-139050000D03*
X145380000Y-141590000D03*
%TD*%
D13*
%TO.C,J10*%
X184170000Y-117010000D03*
D14*
X184170000Y-122010000D03*
%TD*%
D10*
%TO.C,C18*%
X117645060Y-139700030D03*
X112645060Y-139750030D03*
%TD*%
%TO.C,C7*%
X116550000Y-121110000D03*
X116500000Y-116110000D03*
%TD*%
D15*
%TO.C,R12*%
X158200000Y-82175000D03*
D16*
X168360000Y-82175000D03*
%TD*%
D12*
%TO.C,J10*%
X112700000Y-133530000D03*
D11*
X112700000Y-130990000D03*
X112700000Y-128450000D03*
X112700000Y-125910000D03*
X112700000Y-123370000D03*
X112700000Y-120830000D03*
X112700000Y-118290000D03*
X112700000Y-115750000D03*
X112700000Y-113210000D03*
X112700000Y-110670000D03*
X112700000Y-108130000D03*
X112700000Y-105590000D03*
X112700000Y-103050000D03*
X112700000Y-100510000D03*
X112700000Y-97970000D03*
X112700000Y-95430000D03*
X112700000Y-92890000D03*
X112700000Y-90350000D03*
X112700000Y-87810000D03*
X112700000Y-85270000D03*
X112700000Y-82730000D03*
X112700000Y-80190000D03*
X112700000Y-77650000D03*
X112700000Y-75110000D03*
%TD*%
D10*
%TO.C,C21*%
X136324970Y-142042610D03*
X136274970Y-137042610D03*
%TD*%
D12*
%TO.C,J5*%
X105470000Y-142690000D03*
D11*
X105470000Y-140150000D03*
%TD*%
D10*
%TO.C,C9*%
X162775000Y-93225000D03*
X162725000Y-88225000D03*
%TD*%
%TO.C,C4*%
X169105000Y-114299614D03*
X169055000Y-109299614D03*
%TD*%
D12*
%TO.C,J2*%
X106875000Y-94600000D03*
D11*
X106875000Y-97140000D03*
X106875000Y-99680000D03*
X106875000Y-102220000D03*
%TD*%
D10*
%TO.C,C2*%
X118355000Y-109050000D03*
X118305000Y-104050000D03*
%TD*%
%TO.C,C6*%
X123975000Y-108850000D03*
X123925000Y-103850000D03*
%TD*%
D12*
%TO.C,J13*%
X133090000Y-126080000D03*
D11*
X133090000Y-123540000D03*
X133090000Y-121000000D03*
X133090000Y-118460000D03*
X133090000Y-115920000D03*
X133090000Y-113380000D03*
X133090000Y-110840000D03*
X133090000Y-108300000D03*
X133090000Y-105760000D03*
X133090000Y-103220000D03*
X133090000Y-100680000D03*
X133090000Y-98140000D03*
X133090000Y-95600000D03*
X133090000Y-93060000D03*
X133090000Y-90520000D03*
X133090000Y-87980000D03*
X133090000Y-85440000D03*
%TD*%
D13*
%TO.C,J9*%
X182550000Y-68560000D03*
D14*
X182550000Y-73560000D03*
%TD*%
D10*
%TO.C,C8*%
X124680000Y-128280000D03*
X124630000Y-123280000D03*
%TD*%
D20*
%TO.C,TP1*%
X136230000Y-88940000D03*
%TD*%
D21*
%TO.C,PS1*%
X161300000Y-111845000D03*
D22*
X161300000Y-114385000D03*
X161300000Y-116925000D03*
%TD*%
D12*
%TO.C,RIGHT_LC_CONN1*%
X156100000Y-69865000D03*
D11*
X156100000Y-67325000D03*
X158640000Y-69865000D03*
X158640000Y-67325000D03*
X161180000Y-69865000D03*
X161180000Y-67325000D03*
X163720000Y-69865000D03*
X163720000Y-67325000D03*
%TD*%
D10*
%TO.C,C3*%
X151675030Y-106279941D03*
X151725030Y-111279941D03*
%TD*%
%TO.C,C5*%
X155209970Y-96045119D03*
X155159970Y-91045119D03*
%TD*%
D20*
%TO.C,TP2*%
X136750000Y-97210000D03*
%TD*%
D12*
%TO.C,J6*%
X106675000Y-77325000D03*
D11*
X106675000Y-79865000D03*
%TD*%
D12*
%TO.C,J3*%
X106875000Y-88090000D03*
D11*
X106875000Y-85550000D03*
%TD*%
D10*
%TO.C,C25*%
X157705000Y-135557450D03*
X162705000Y-135507450D03*
%TD*%
D15*
%TO.C,R25*%
X143220000Y-88240000D03*
D16*
X143220000Y-98400000D03*
%TD*%
D15*
%TO.C,R23*%
X153830000Y-145000000D03*
D16*
X163990000Y-145000000D03*
%TD*%
D12*
%TO.C,J7*%
X175475000Y-76850000D03*
D11*
X175475000Y-79390000D03*
X175475000Y-81930000D03*
%TD*%
D15*
%TO.C,R16*%
X153205000Y-135482450D03*
D16*
X153205000Y-125322450D03*
%TD*%
D10*
%TO.C,C15*%
X157175000Y-113175000D03*
X157225000Y-118175000D03*
%TD*%
D15*
%TO.C,R22*%
X114930000Y-68700000D03*
D16*
X104770000Y-68700000D03*
%TD*%
D12*
%TO.C,J4*%
X139065000Y-130050000D03*
D11*
X136525000Y-130050000D03*
%TD*%
D10*
%TO.C,C23*%
X105195000Y-130985386D03*
X105245000Y-135985386D03*
%TD*%
%TO.C,C20*%
X146204940Y-70510000D03*
X151204940Y-70460000D03*
%TD*%
D15*
%TO.C,R7*%
X143130000Y-111390000D03*
D16*
X143130000Y-101230000D03*
%TD*%
D10*
%TO.C,C24*%
X157454941Y-139324970D03*
X162454941Y-139274970D03*
%TD*%
D15*
%TO.C,R2*%
X159850000Y-100330000D03*
D16*
X159850000Y-90170000D03*
%TD*%
D13*
%TO.C,J12*%
X189330000Y-136260000D03*
D14*
X189330000Y-141260000D03*
%TD*%
D15*
%TO.C,R18*%
X134300000Y-66550000D03*
D16*
X134300000Y-76710000D03*
%TD*%
D15*
%TO.C,R15*%
X122475000Y-143505000D03*
D16*
X122475000Y-133345000D03*
%TD*%
D15*
%TO.C,R20*%
X144690000Y-126300000D03*
D16*
X144690000Y-116140000D03*
%TD*%
D15*
%TO.C,R3*%
X150455000Y-133325000D03*
D16*
X140295000Y-133325000D03*
%TD*%
D10*
%TO.C,C30*%
X138479881Y-67159970D03*
X143479881Y-67109970D03*
%TD*%
%TO.C,C26*%
X119710000Y-71590000D03*
X114710000Y-71640000D03*
%TD*%
D23*
%TO.C,U6*%
X164350000Y-132525000D03*
X163080000Y-132525000D03*
X161810000Y-132525000D03*
X160540000Y-132525000D03*
X159270000Y-132525000D03*
X158000000Y-132525000D03*
X156730000Y-132525000D03*
X155460000Y-132525000D03*
X155460000Y-127800600D03*
X156730000Y-127800600D03*
X158000000Y-127800600D03*
X159270000Y-127800600D03*
X160540000Y-127800600D03*
X161810000Y-127800600D03*
X163080000Y-127800600D03*
X164350000Y-127800600D03*
%TD*%
D24*
%TO.C,INA_PWR_JP7*%
X119375000Y-66425000D03*
D25*
X119375000Y-67725000D03*
D26*
X119375000Y-69025000D03*
%TD*%
D27*
%TO.C,U1*%
X124301001Y-116475042D03*
X124301001Y-117125028D03*
X124301001Y-117775014D03*
X124301001Y-118425000D03*
X124301001Y-119074986D03*
X124301001Y-119724972D03*
X124301001Y-120374958D03*
X118395501Y-120374958D03*
X118395501Y-119724972D03*
X118395501Y-119074986D03*
X118395501Y-118425000D03*
X118395501Y-117775014D03*
X118395501Y-117125028D03*
X118395501Y-116475042D03*
%TD*%
D28*
%TO.C,D5*%
X119650000Y-91400000D03*
X119650000Y-89500000D03*
X121525000Y-90450000D03*
%TD*%
D23*
%TO.C,U4*%
X153270000Y-78347550D03*
X152000000Y-78347550D03*
X150730000Y-78347550D03*
X149460000Y-78347550D03*
X148190000Y-78347550D03*
X146920000Y-78347550D03*
X145650000Y-78347550D03*
X144380000Y-78347550D03*
X144380000Y-73623150D03*
X145650000Y-73623150D03*
X146920000Y-73623150D03*
X148190000Y-73623150D03*
X149460000Y-73623150D03*
X150730000Y-73623150D03*
X152000000Y-73623150D03*
X153270000Y-73623150D03*
%TD*%
D24*
%TO.C,INA_EXC_JP3*%
X142360000Y-138540000D03*
D25*
X142360000Y-139840000D03*
D26*
X142360000Y-141140000D03*
%TD*%
D29*
%TO.C,U5*%
X137605000Y-95130000D03*
X137605000Y-93860000D03*
X137605000Y-92590000D03*
X137605000Y-91320000D03*
X142545000Y-91320000D03*
X142545000Y-92590000D03*
X142545000Y-93860000D03*
X142545000Y-95130000D03*
%TD*%
D30*
%TO.C,U2*%
X124300000Y-110550000D03*
X124300000Y-111200001D03*
X124300000Y-111850002D03*
X124300000Y-112500001D03*
X124300000Y-113150000D03*
X124300000Y-113800001D03*
X124300000Y-114450000D03*
X118396502Y-114450002D03*
X118396502Y-113800001D03*
X118396502Y-113150002D03*
X118396502Y-112500001D03*
X118396502Y-111850002D03*
X118396502Y-111200001D03*
X118396502Y-110550002D03*
%TD*%
D31*
%TO.C,INA_EXC_JP6*%
X150810000Y-130060000D03*
D32*
X152110000Y-130060000D03*
D33*
X153410000Y-130060000D03*
%TD*%
D34*
%TO.C,INA_EXC_JP7*%
X140840000Y-74380000D03*
D32*
X139540000Y-74380000D03*
D35*
X138240000Y-74380000D03*
%TD*%
D23*
%TO.C,U3*%
X133880000Y-142534400D03*
X132610000Y-142534400D03*
X131340000Y-142534400D03*
X130070000Y-142534400D03*
X128800000Y-142534400D03*
X127530000Y-142534400D03*
X126260000Y-142534400D03*
X124990000Y-142534400D03*
X124990000Y-137810000D03*
X126260000Y-137810000D03*
X127530000Y-137810000D03*
X128800000Y-137810000D03*
X130070000Y-137810000D03*
X131340000Y-137810000D03*
X132610000Y-137810000D03*
X133880000Y-137810000D03*
%TD*%
D24*
%TO.C,INA_PWR_JP3*%
X137975000Y-138350000D03*
D25*
X137975000Y-139650000D03*
D26*
X137975000Y-140950000D03*
%TD*%
D36*
%TO.C,U7*%
X123025000Y-67175600D03*
X124295000Y-67175600D03*
X125565000Y-67175600D03*
X126835000Y-67175600D03*
X128105000Y-67175600D03*
X129375000Y-67175600D03*
X130645000Y-67175600D03*
X131915000Y-67175600D03*
X131915000Y-71900000D03*
X130645000Y-71900000D03*
X129375000Y-71900000D03*
X128105000Y-71900000D03*
X126835000Y-71900000D03*
X125565000Y-71900000D03*
X124295000Y-71900000D03*
X123025000Y-71900000D03*
%TD*%
D37*
%TO.C,TeensyPowerJP1*%
X108970000Y-133660000D03*
D38*
X110270000Y-133660000D03*
%TD*%
D24*
%TO.C,INA_PWR_JP6*%
X166700000Y-131200000D03*
D25*
X166700000Y-132500000D03*
D26*
X166700000Y-133800000D03*
%TD*%
D34*
%TO.C,INA_PWR_JP4*%
X154450000Y-80850000D03*
D32*
X153150000Y-80850000D03*
D35*
X151850000Y-80850000D03*
%TD*%
D34*
%TO.C,INA_EXC_JP4*%
X157630000Y-76070000D03*
D32*
X156330000Y-76070000D03*
D35*
X155030000Y-76070000D03*
%TD*%
D39*
%TO.C,INA219*%
X157780000Y-106224150D03*
X156510000Y-106224150D03*
X155240000Y-106224150D03*
X153970000Y-106224150D03*
X153970000Y-100775850D03*
X155240000Y-100775850D03*
X156510000Y-100775850D03*
X157780000Y-100775850D03*
%TD*%
D40*
X133941100Y-80081100D02*
G75*
G02*
X130441100Y-80081100I-1750000J0D01*
G01*
X130441100Y-80081100D02*
G75*
G02*
X133941100Y-80081100I1750000J0D01*
G01*
D41*
X103410000Y-63980000D02*
X192766340Y-63980000D01*
X192766340Y-146625548D01*
X103410000Y-146625548D01*
X103410000Y-63980000D01*
D40*
X181941100Y-128081100D02*
G75*
G02*
X178441100Y-128081100I-1750000J0D01*
G01*
X178441100Y-128081100D02*
G75*
G02*
X181941100Y-128081100I1750000J0D01*
G01*
X181941100Y-80081100D02*
G75*
G02*
X178441100Y-80081100I-1750000J0D01*
G01*
X178441100Y-80081100D02*
G75*
G02*
X181941100Y-80081100I1750000J0D01*
G01*
M02*
