G04 #@! TF.GenerationSoftware,KiCad,Pcbnew,9.0.1*
G04 #@! TF.CreationDate,2026-07-28T12:37:15-04:00*
G04 #@! TF.ProjectId,TMotor_Rev0_5_1_Mark_2_NAU_OpenExo,544d6f74-6f72-45f5-9265-76305f355f31,rev?*
G04 #@! TF.SameCoordinates,Original*
G04 #@! TF.FileFunction,Soldermask,Top*
G04 #@! TF.FilePolarity,Negative*
%FSLAX46Y46*%
G04 Gerber Fmt 4.6, Leading zero omitted, Abs format (unit mm)*
G04 Created by KiCad (PCBNEW 9.0.1) date 2026-07-28 12:37:15*
%MOMM*%
%LPD*%
G01*
G04 APERTURE LIST*
G04 Aperture macros list*
%AMRoundRect*
0 Rectangle with rounded corners*
0 $1 Rounding radius*
0 $2 $3 $4 $5 $6 $7 $8 $9 X,Y pos of 4 corners*
0 Add a 4 corners polygon primitive as box body*
4,1,4,$2,$3,$4,$5,$6,$7,$8,$9,$2,$3,0*
0 Add four circle primitives for the rounded corners*
1,1,$1+$1,$2,$3*
1,1,$1+$1,$4,$5*
1,1,$1+$1,$6,$7*
1,1,$1+$1,$8,$9*
0 Add four rect primitives between the rounded corners*
20,1,$1+$1,$2,$3,$4,$5,0*
20,1,$1+$1,$4,$5,$6,$7,0*
20,1,$1+$1,$6,$7,$8,$9,0*
20,1,$1+$1,$8,$9,$2,$3,0*%
%AMFreePoly0*
4,1,23,0.500000,-0.750000,0.000000,-0.750000,0.000000,-0.745722,-0.065263,-0.745722,-0.191342,-0.711940,-0.304381,-0.646677,-0.396677,-0.554381,-0.461940,-0.441342,-0.495722,-0.315263,-0.495722,-0.250000,-0.500000,-0.250000,-0.500000,0.250000,-0.495722,0.250000,-0.495722,0.315263,-0.461940,0.441342,-0.396677,0.554381,-0.304381,0.646677,-0.191342,0.711940,-0.065263,0.745722,0.000000,0.745722,
0.000000,0.750000,0.500000,0.750000,0.500000,-0.750000,0.500000,-0.750000,$1*%
%AMFreePoly1*
4,1,23,0.000000,0.745722,0.065263,0.745722,0.191342,0.711940,0.304381,0.646677,0.396677,0.554381,0.461940,0.441342,0.495722,0.315263,0.495722,0.250000,0.500000,0.250000,0.500000,-0.250000,0.495722,-0.250000,0.495722,-0.315263,0.461940,-0.441342,0.396677,-0.554381,0.304381,-0.646677,0.191342,-0.711940,0.065263,-0.745722,0.000000,-0.745722,0.000000,-0.750000,-0.500000,-0.750000,
-0.500000,0.750000,0.000000,0.750000,0.000000,0.745722,0.000000,0.745722,$1*%
G04 Aperture macros list end*
%ADD10C,0.000000*%
%ADD11RoundRect,0.250000X-0.337500X-0.475000X0.337500X-0.475000X0.337500X0.475000X-0.337500X0.475000X0*%
%ADD12C,1.600000*%
%ADD13O,1.600000X1.600000*%
%ADD14RoundRect,0.250000X-0.475000X0.337500X-0.475000X-0.337500X0.475000X-0.337500X0.475000X0.337500X0*%
%ADD15RoundRect,0.102000X-0.492500X-0.492500X0.492500X-0.492500X0.492500X0.492500X-0.492500X0.492500X0*%
%ADD16C,1.189000*%
%ADD17C,1.552000*%
%ADD18R,3.200000X3.200000*%
%ADD19O,3.200000X3.200000*%
%ADD20C,1.512000*%
%ADD21C,1.462000*%
%ADD22C,1.412000*%
%ADD23RoundRect,0.250000X0.475000X-0.337500X0.475000X0.337500X-0.475000X0.337500X-0.475000X-0.337500X0*%
%ADD24RoundRect,0.250000X-0.350000X-0.450000X0.350000X-0.450000X0.350000X0.450000X-0.350000X0.450000X0*%
%ADD25FreePoly0,0.000000*%
%ADD26FreePoly1,0.000000*%
%ADD27RoundRect,0.250000X0.450000X-0.350000X0.450000X0.350000X-0.450000X0.350000X-0.450000X-0.350000X0*%
%ADD28RoundRect,0.250000X-0.450000X0.350000X-0.450000X-0.350000X0.450000X-0.350000X0.450000X0.350000X0*%
%ADD29RoundRect,0.250000X0.337500X0.475000X-0.337500X0.475000X-0.337500X-0.475000X0.337500X-0.475000X0*%
%ADD30R,2.000000X2.000000*%
%ADD31C,2.000000*%
%ADD32R,1.700000X1.700000*%
%ADD33C,1.700000*%
%ADD34C,1.800000*%
%ADD35C,1.727200*%
%ADD36R,1.727200X1.727200*%
%ADD37RoundRect,0.162500X-0.162500X0.337500X-0.162500X-0.337500X0.162500X-0.337500X0.162500X0.337500X0*%
%ADD38RoundRect,0.063500X1.714500X-0.939800X1.714500X0.939800X-1.714500X0.939800X-1.714500X-0.939800X0*%
%ADD39RoundRect,0.162500X0.162500X-0.337500X0.162500X0.337500X-0.162500X0.337500X-0.162500X-0.337500X0*%
%ADD40C,1.712000*%
%ADD41R,3.800000X3.800000*%
%ADD42C,4.000000*%
%ADD43RoundRect,0.243750X0.456250X-0.243750X0.456250X0.243750X-0.456250X0.243750X-0.456250X-0.243750X0*%
%ADD44RoundRect,0.102000X0.492500X-0.492500X0.492500X0.492500X-0.492500X0.492500X-0.492500X-0.492500X0*%
%ADD45RoundRect,0.063500X-1.574800X0.977900X-1.574800X-0.977900X1.574800X-0.977900X1.574800X0.977900X0*%
%ADD46FreePoly0,90.000000*%
%ADD47FreePoly1,90.000000*%
%ADD48RoundRect,0.250000X0.350000X0.450000X-0.350000X0.450000X-0.350000X-0.450000X0.350000X-0.450000X0*%
G04 APERTURE END LIST*
D10*
G04 #@! TO.C,CAN_L1*
G36*
X167276200Y-142626200D02*
G01*
X165923800Y-142626200D01*
X165923800Y-140673800D01*
X167276200Y-140673800D01*
X167276200Y-142626200D01*
G37*
G36*
X168276200Y-138576200D02*
G01*
X167523800Y-138576200D01*
X167523800Y-136923800D01*
X168276200Y-136923800D01*
X168276200Y-138576200D01*
G37*
G36*
X169276200Y-138576200D02*
G01*
X168523800Y-138576200D01*
X168523800Y-136923800D01*
X169276200Y-136923800D01*
X169276200Y-138576200D01*
G37*
G36*
X170876200Y-142626200D02*
G01*
X169523800Y-142626200D01*
X169523800Y-140673800D01*
X170876200Y-140673800D01*
X170876200Y-142626200D01*
G37*
G04 #@! TO.C,INA_EXC_JP2*
G36*
X160180000Y-125770000D02*
G01*
X160480000Y-125770000D01*
X160480000Y-127270000D01*
X160180000Y-127270000D01*
X160180000Y-125770000D01*
G37*
G04 #@! TO.C,CAN_R1*
G36*
X170526200Y-67536200D02*
G01*
X169173800Y-67536200D01*
X169173800Y-65583800D01*
X170526200Y-65583800D01*
X170526200Y-67536200D01*
G37*
G36*
X171526200Y-71286200D02*
G01*
X170773800Y-71286200D01*
X170773800Y-69633800D01*
X171526200Y-69633800D01*
X171526200Y-71286200D01*
G37*
G36*
X172526200Y-71286200D02*
G01*
X171773800Y-71286200D01*
X171773800Y-69633800D01*
X172526200Y-69633800D01*
X172526200Y-71286200D01*
G37*
G36*
X174126200Y-67536200D02*
G01*
X172773800Y-67536200D01*
X172773800Y-65583800D01*
X174126200Y-65583800D01*
X174126200Y-67536200D01*
G37*
G04 #@! TO.C,INA_EXC_JP1*
G36*
X135620000Y-134360000D02*
G01*
X137120000Y-134360000D01*
X137120000Y-134060000D01*
X135620000Y-134060000D01*
X135620000Y-134360000D01*
G37*
G04 #@! TD*
D11*
G04 #@! TO.C,C24*
X152360000Y-76000000D03*
X154435000Y-76000000D03*
G04 #@! TD*
D12*
G04 #@! TO.C,R30*
X166420000Y-72300000D03*
D13*
X166420000Y-79920000D03*
G04 #@! TD*
D14*
G04 #@! TO.C,C38*
X142550000Y-98365000D03*
X142550000Y-100440000D03*
G04 #@! TD*
D15*
G04 #@! TO.C,RIGHT_LC_CONN1*
X156230000Y-68200000D03*
D16*
X156230000Y-66930000D03*
X157500000Y-68200000D03*
X157500000Y-66930000D03*
X158770000Y-68200000D03*
X158770000Y-66930000D03*
X160040000Y-68200000D03*
X160040000Y-66930000D03*
X161310000Y-68200000D03*
X161310000Y-66930000D03*
X162580000Y-68200000D03*
X162580000Y-66930000D03*
X163850000Y-68200000D03*
X163850000Y-66930000D03*
D17*
X153640000Y-67565000D03*
X166440000Y-67565000D03*
G04 #@! TD*
D18*
G04 #@! TO.C,D1*
X167875000Y-104245000D03*
D19*
X167875000Y-89005000D03*
G04 #@! TD*
D20*
G04 #@! TO.C,U7*
X127810000Y-131120000D03*
X127810000Y-128580000D03*
X127810000Y-126040000D03*
X127810000Y-123500000D03*
X127810000Y-98100000D03*
X112570000Y-128580000D03*
X122770000Y-87900000D03*
X127810000Y-120960000D03*
X127810000Y-118420000D03*
D21*
X124800000Y-127270000D03*
D20*
X127810000Y-115880000D03*
X127810000Y-113340000D03*
X127810000Y-110800000D03*
X127810000Y-108260000D03*
X127810000Y-105720000D03*
X127810000Y-103180000D03*
X127810000Y-100640000D03*
X112570000Y-100640000D03*
X112570000Y-103180000D03*
X112570000Y-105720000D03*
X112570000Y-108260000D03*
X112570000Y-110800000D03*
X112570000Y-113340000D03*
X112570000Y-115880000D03*
X112570000Y-118420000D03*
X112570000Y-120960000D03*
X112570000Y-123500000D03*
X112570000Y-126040000D03*
X127810000Y-95560000D03*
X127810000Y-93020000D03*
X127810000Y-90480000D03*
X127810000Y-87940000D03*
X127810000Y-85400000D03*
X127810000Y-82860000D03*
X127810000Y-80320000D03*
X127810000Y-77780000D03*
X127810000Y-75240000D03*
X112570000Y-75240000D03*
X112570000Y-77780000D03*
X112570000Y-80320000D03*
X112570000Y-82860000D03*
X112570000Y-85400000D03*
X112570000Y-87940000D03*
X112570000Y-90480000D03*
X112570000Y-93020000D03*
X112570000Y-95560000D03*
X127810000Y-133660000D03*
X112570000Y-98100000D03*
X112570000Y-131120000D03*
X120230000Y-87900000D03*
D22*
X115230000Y-122360000D03*
D20*
X112570000Y-133660000D03*
G04 #@! TD*
D23*
G04 #@! TO.C,C26*
X150780000Y-72095000D03*
X150780000Y-70020000D03*
G04 #@! TD*
D24*
G04 #@! TO.C,R4*
X170580000Y-122640000D03*
X172580000Y-122640000D03*
G04 #@! TD*
D25*
G04 #@! TO.C,INA_EXC_JP2*
X159680000Y-126520000D03*
D26*
X160980000Y-126520000D03*
G04 #@! TD*
D24*
G04 #@! TO.C,R21*
X136630000Y-69530000D03*
X138630000Y-69530000D03*
G04 #@! TD*
D27*
G04 #@! TO.C,R16*
X148730000Y-70410000D03*
X148730000Y-68410000D03*
G04 #@! TD*
D28*
G04 #@! TO.C,R13*
X147630000Y-143100000D03*
X147630000Y-145100000D03*
G04 #@! TD*
D29*
G04 #@! TO.C,C29*
X131755000Y-69420000D03*
X129680000Y-69420000D03*
G04 #@! TD*
D30*
G04 #@! TO.C,C8*
X162140000Y-91660000D03*
D31*
X157140000Y-91660000D03*
G04 #@! TD*
D11*
G04 #@! TO.C,C37*
X142830000Y-109480000D03*
X144905000Y-109480000D03*
G04 #@! TD*
G04 #@! TO.C,C33*
X142855000Y-111690000D03*
X144930000Y-111690000D03*
G04 #@! TD*
D14*
G04 #@! TO.C,C19*
X147540000Y-138590000D03*
X147540000Y-140665000D03*
G04 #@! TD*
D32*
G04 #@! TO.C,J4*
X106140000Y-142715000D03*
D33*
X106140000Y-140175000D03*
G04 #@! TD*
D34*
G04 #@! TO.C,A1*
X133110000Y-85480000D03*
X133110000Y-126120000D03*
X148350000Y-85480000D03*
X148350000Y-126120000D03*
D35*
X148350000Y-121040000D03*
X148350000Y-95640000D03*
X148350000Y-115960000D03*
X148350000Y-113420000D03*
X148350000Y-110880000D03*
X148350000Y-108340000D03*
X148350000Y-105800000D03*
X148350000Y-103260000D03*
X148350000Y-100720000D03*
X148350000Y-98180000D03*
X148350000Y-118500000D03*
X133110000Y-88020000D03*
X133110000Y-90560000D03*
X133110000Y-98180000D03*
X133110000Y-100720000D03*
X133110000Y-103260000D03*
X133110000Y-105800000D03*
X133110000Y-108340000D03*
X133110000Y-110880000D03*
X133110000Y-113420000D03*
X133110000Y-115960000D03*
X133110000Y-118500000D03*
X133110000Y-121040000D03*
X133110000Y-123580000D03*
X148350000Y-123580000D03*
D36*
X133110000Y-95640000D03*
X148350000Y-90560000D03*
D35*
X133110000Y-93100000D03*
X148350000Y-93100000D03*
X148350000Y-88020000D03*
G04 #@! TD*
D29*
G04 #@! TO.C,C23*
X144370000Y-73700000D03*
X142295000Y-73700000D03*
G04 #@! TD*
D32*
G04 #@! TO.C,J2*
X106875000Y-94600000D03*
D33*
X106875000Y-97140000D03*
X106875000Y-99680000D03*
X106875000Y-102220000D03*
G04 #@! TD*
D37*
G04 #@! TO.C,D10*
X152720000Y-97580000D03*
X150670000Y-97580000D03*
X151690000Y-99980000D03*
G04 #@! TD*
D15*
G04 #@! TO.C,LEFT_LC_CONN1*
X153090000Y-143560000D03*
D16*
X153090000Y-142290000D03*
X154360000Y-143560000D03*
X154360000Y-142290000D03*
X155630000Y-143560000D03*
X155630000Y-142290000D03*
X156900000Y-143560000D03*
X156900000Y-142290000D03*
X158170000Y-143560000D03*
X158170000Y-142290000D03*
X159440000Y-143560000D03*
X159440000Y-142290000D03*
X160710000Y-143560000D03*
X160710000Y-142290000D03*
D17*
X150500000Y-142925000D03*
X163300000Y-142925000D03*
G04 #@! TD*
D38*
G04 #@! TO.C,SHUNT1*
X156450000Y-104965400D03*
X156450000Y-99834600D03*
G04 #@! TD*
D31*
G04 #@! TO.C,TP2*
X136120000Y-88420000D03*
G04 #@! TD*
D39*
G04 #@! TO.C,D8*
X150870000Y-113420000D03*
X152920000Y-113420000D03*
X151900000Y-111020000D03*
G04 #@! TD*
D31*
G04 #@! TO.C,TP1*
X136750000Y-97210000D03*
G04 #@! TD*
D32*
G04 #@! TO.C,J3*
X106675000Y-77325000D03*
D33*
X106675000Y-79865000D03*
G04 #@! TD*
D32*
G04 #@! TO.C,J5*
X106875000Y-88090000D03*
D33*
X106875000Y-85550000D03*
G04 #@! TD*
D28*
G04 #@! TO.C,R26*
X121990000Y-136730000D03*
X121990000Y-138730000D03*
G04 #@! TD*
D40*
G04 #@! TO.C,U9*
X161340000Y-110410000D03*
X161340000Y-112950000D03*
X161340000Y-115490000D03*
G04 #@! TD*
D11*
G04 #@! TO.C,C40*
X120165000Y-83530000D03*
X122240000Y-83530000D03*
G04 #@! TD*
D24*
G04 #@! TO.C,R17*
X155980000Y-72810000D03*
X157980000Y-72810000D03*
G04 #@! TD*
D27*
G04 #@! TO.C,R23*
X133790000Y-132900000D03*
X133790000Y-130900000D03*
G04 #@! TD*
D12*
G04 #@! TO.C,R29*
X163330000Y-72340000D03*
D13*
X163330000Y-79960000D03*
G04 #@! TD*
D11*
G04 #@! TO.C,C34*
X140155000Y-104820000D03*
X142230000Y-104820000D03*
G04 #@! TD*
D41*
G04 #@! TO.C,J9*
X184120000Y-117090000D03*
D42*
X184120000Y-122090000D03*
G04 #@! TD*
D32*
G04 #@! TO.C,J6*
X175475000Y-76850000D03*
D33*
X175475000Y-79390000D03*
X175475000Y-81930000D03*
G04 #@! TD*
D23*
G04 #@! TO.C,C32*
X152260000Y-128105000D03*
X152260000Y-126030000D03*
G04 #@! TD*
D43*
G04 #@! TO.C,D3*
X122010000Y-142317500D03*
X122010000Y-140442500D03*
G04 #@! TD*
D41*
G04 #@! TO.C,J11*
X181980000Y-136270000D03*
D42*
X181980000Y-141270000D03*
G04 #@! TD*
D24*
G04 #@! TO.C,R20*
X136600000Y-66080000D03*
X138600000Y-66080000D03*
G04 #@! TD*
D23*
G04 #@! TO.C,C35*
X144710000Y-100545000D03*
X144710000Y-98470000D03*
G04 #@! TD*
G04 #@! TO.C,C12*
X138530000Y-91975000D03*
X138530000Y-89900000D03*
G04 #@! TD*
D29*
G04 #@! TO.C,C15*
X163025000Y-136410000D03*
X160950000Y-136410000D03*
G04 #@! TD*
D44*
G04 #@! TO.C,RIGHT_LC_CONN2*
X107475000Y-118350000D03*
D16*
X106205000Y-118350000D03*
X107475000Y-117080000D03*
X106205000Y-117080000D03*
X107475000Y-115810000D03*
X106205000Y-115810000D03*
X107475000Y-114540000D03*
X106205000Y-114540000D03*
X107475000Y-113270000D03*
X106205000Y-113270000D03*
X107475000Y-112000000D03*
X106205000Y-112000000D03*
X107475000Y-110730000D03*
X106205000Y-110730000D03*
D17*
X106840000Y-120940000D03*
X106840000Y-108140000D03*
G04 #@! TD*
D23*
G04 #@! TO.C,C25*
X145410000Y-71760000D03*
X145410000Y-69685000D03*
G04 #@! TD*
D43*
G04 #@! TO.C,D2*
X126700000Y-142290000D03*
X126700000Y-140415000D03*
G04 #@! TD*
D41*
G04 #@! TO.C,J10*
X189310000Y-136290000D03*
D42*
X189310000Y-141290000D03*
G04 #@! TD*
D29*
G04 #@! TO.C,C27*
X122090000Y-85510000D03*
X120015000Y-85510000D03*
G04 #@! TD*
D11*
G04 #@! TO.C,C39*
X143325000Y-95530000D03*
X145400000Y-95530000D03*
G04 #@! TD*
D28*
G04 #@! TO.C,R5*
X126680000Y-136130000D03*
X126680000Y-138130000D03*
G04 #@! TD*
D45*
G04 #@! TO.C,U$1*
X153425000Y-116123900D03*
X153425000Y-121026100D03*
G04 #@! TD*
D23*
G04 #@! TO.C,C28*
X124040000Y-66925000D03*
X124040000Y-64850000D03*
G04 #@! TD*
D27*
G04 #@! TO.C,R3*
X160600000Y-100640000D03*
X160600000Y-98640000D03*
G04 #@! TD*
D41*
G04 #@! TO.C,J8*
X189510000Y-68590000D03*
D42*
X189510000Y-73590000D03*
G04 #@! TD*
D28*
G04 #@! TO.C,R11*
X145465000Y-139900000D03*
X145465000Y-141900000D03*
G04 #@! TD*
D46*
G04 #@! TO.C,INA_EXC_JP1*
X136370000Y-134860000D03*
D47*
X136370000Y-133560000D03*
G04 #@! TD*
D14*
G04 #@! TO.C,C22*
X166430000Y-74935000D03*
X166430000Y-77010000D03*
G04 #@! TD*
D39*
G04 #@! TO.C,D9*
X151080000Y-108460000D03*
X153130000Y-108460000D03*
X152110000Y-106060000D03*
G04 #@! TD*
D14*
G04 #@! TO.C,C6*
X163330000Y-74855000D03*
X163330000Y-76930000D03*
G04 #@! TD*
D41*
G04 #@! TO.C,J7*
X182430000Y-68530000D03*
D42*
X182430000Y-73530000D03*
G04 #@! TD*
D23*
G04 #@! TO.C,C13*
X162380000Y-133505000D03*
X162380000Y-131430000D03*
G04 #@! TD*
D48*
G04 #@! TO.C,R6*
X156250000Y-126590000D03*
X154250000Y-126590000D03*
G04 #@! TD*
D11*
G04 #@! TO.C,C31*
X131530000Y-65670000D03*
X133605000Y-65670000D03*
G04 #@! TD*
D23*
G04 #@! TO.C,C30*
X121850000Y-66905000D03*
X121850000Y-64830000D03*
G04 #@! TD*
M02*
