%TF.GenerationSoftware,KiCad,Pcbnew,9.0.1*%
%TF.CreationDate,2026-07-29T12:12:27-04:00*%
%TF.ProjectId,TMotor_Rev0_5_1_Mark_2_NAU_OpenExo,544d6f74-6f72-45f5-9265-76305f355f31,rev?*%
%TF.SameCoordinates,Original*%
%TF.FileFunction,Paste,Top*%
%TF.FilePolarity,Positive*%
%FSLAX46Y46*%
G04 Gerber Fmt 4.6, Leading zero omitted, Abs format (unit mm)*
G04 Created by KiCad (PCBNEW 9.0.1) date 2026-07-29 12:12:27*
%MOMM*%
%LPD*%
G01*
G04 APERTURE LIST*
G04 Aperture macros list*
%AMRoundRect*
0 Rectangle with rounded corners*
0 $1 Rounding radius*
0 $2 $3 $4 $5 $6 $7 $8 $9 X,Y pos of 4 corners*
0 Add a 4 corners polygon primitive as box body*
4,1,4,$2,$3,$4,$5,$6,$7,$8,$9,$2,$3,0*
0 Add four circle primitives for the rounded corners*
1,1,$1+$1,$2,$3*
1,1,$1+$1,$4,$5*
1,1,$1+$1,$6,$7*
1,1,$1+$1,$8,$9*
0 Add four rect primitives between the rounded corners*
20,1,$1+$1,$2,$3,$4,$5,0*
20,1,$1+$1,$4,$5,$6,$7,0*
20,1,$1+$1,$6,$7,$8,$9,0*
20,1,$1+$1,$8,$9,$2,$3,0*%
G04 Aperture macros list end*
%ADD10RoundRect,0.250000X-0.337500X-0.475000X0.337500X-0.475000X0.337500X0.475000X-0.337500X0.475000X0*%
%ADD11RoundRect,0.250000X-0.475000X0.337500X-0.475000X-0.337500X0.475000X-0.337500X0.475000X0.337500X0*%
%ADD12R,0.600000X1.500000*%
%ADD13R,1.200000X1.800000*%
%ADD14C,1.208000*%
%ADD15RoundRect,0.250000X0.475000X-0.337500X0.475000X0.337500X-0.475000X0.337500X-0.475000X-0.337500X0*%
%ADD16RoundRect,0.250000X-0.350000X-0.450000X0.350000X-0.450000X0.350000X0.450000X-0.350000X0.450000X0*%
%ADD17RoundRect,0.250000X0.450000X-0.350000X0.450000X0.350000X-0.450000X0.350000X-0.450000X-0.350000X0*%
%ADD18RoundRect,0.250000X-0.450000X0.350000X-0.450000X-0.350000X0.450000X-0.350000X0.450000X0.350000X0*%
%ADD19RoundRect,0.250000X0.337500X0.475000X-0.337500X0.475000X-0.337500X-0.475000X0.337500X-0.475000X0*%
%ADD20RoundRect,0.162500X-0.162500X0.337500X-0.162500X-0.337500X0.162500X-0.337500X0.162500X0.337500X0*%
%ADD21R,3.429000X1.879600*%
%ADD22RoundRect,0.162500X0.162500X-0.337500X0.162500X0.337500X-0.162500X0.337500X-0.162500X-0.337500X0*%
%ADD23RoundRect,0.243750X0.456250X-0.243750X0.456250X0.243750X-0.456250X0.243750X-0.456250X-0.243750X0*%
%ADD24R,3.149600X1.955800*%
%ADD25RoundRect,0.250000X0.350000X0.450000X-0.350000X0.450000X-0.350000X-0.450000X0.350000X-0.450000X0*%
%TA.AperFunction,Profile*%
%ADD26C,0.254000*%
%TD*%
%TA.AperFunction,Profile*%
%ADD27C,0.050000*%
%TD*%
G04 APERTURE END LIST*
D10*
%TO.C,C24*%
X152360000Y-76000000D03*
X154435000Y-76000000D03*
%TD*%
D11*
%TO.C,C38*%
X142550000Y-98365000D03*
X142550000Y-100440000D03*
%TD*%
D12*
%TO.C,CAN_L1*%
X167900000Y-137750000D03*
X168900000Y-137750000D03*
D13*
X170200000Y-141650000D03*
X166600000Y-141650000D03*
%TD*%
D14*
%TO.C,U7*%
X115230000Y-122360000D03*
%TD*%
D15*
%TO.C,C26*%
X150780000Y-72095000D03*
X150780000Y-70020000D03*
%TD*%
D16*
%TO.C,R4*%
X170580000Y-122640000D03*
X172580000Y-122640000D03*
%TD*%
%TO.C,R21*%
X136630000Y-69530000D03*
X138630000Y-69530000D03*
%TD*%
D17*
%TO.C,R16*%
X148730000Y-70410000D03*
X148730000Y-68410000D03*
%TD*%
D18*
%TO.C,R13*%
X147630000Y-143100000D03*
X147630000Y-145100000D03*
%TD*%
D19*
%TO.C,C29*%
X131755000Y-69420000D03*
X129680000Y-69420000D03*
%TD*%
D10*
%TO.C,C37*%
X142830000Y-109480000D03*
X144905000Y-109480000D03*
%TD*%
%TO.C,C33*%
X142855000Y-111690000D03*
X144930000Y-111690000D03*
%TD*%
D11*
%TO.C,C19*%
X147540000Y-138590000D03*
X147540000Y-140665000D03*
%TD*%
D12*
%TO.C,CAN_R1*%
X172150000Y-70460000D03*
X171150000Y-70460000D03*
D13*
X169850000Y-66560000D03*
X173450000Y-66560000D03*
%TD*%
D19*
%TO.C,C23*%
X144370000Y-73700000D03*
X142295000Y-73700000D03*
%TD*%
D20*
%TO.C,D10*%
X152720000Y-97580000D03*
X150670000Y-97580000D03*
X151690000Y-99980000D03*
%TD*%
D21*
%TO.C,SHUNT1*%
X156450000Y-104965400D03*
X156450000Y-99834600D03*
%TD*%
D22*
%TO.C,D8*%
X150870000Y-113420000D03*
X152920000Y-113420000D03*
X151900000Y-111020000D03*
%TD*%
D18*
%TO.C,R26*%
X121990000Y-136730000D03*
X121990000Y-138730000D03*
%TD*%
D10*
%TO.C,C40*%
X120165000Y-83530000D03*
X122240000Y-83530000D03*
%TD*%
D16*
%TO.C,R17*%
X155980000Y-72810000D03*
X157980000Y-72810000D03*
%TD*%
D17*
%TO.C,R23*%
X133790000Y-132900000D03*
X133790000Y-130900000D03*
%TD*%
D10*
%TO.C,C34*%
X140155000Y-104820000D03*
X142230000Y-104820000D03*
%TD*%
D15*
%TO.C,C32*%
X152260000Y-128105000D03*
X152260000Y-126030000D03*
%TD*%
D23*
%TO.C,D3*%
X122010000Y-142317500D03*
X122010000Y-140442500D03*
%TD*%
D16*
%TO.C,R20*%
X136600000Y-66080000D03*
X138600000Y-66080000D03*
%TD*%
D15*
%TO.C,C35*%
X144710000Y-100545000D03*
X144710000Y-98470000D03*
%TD*%
%TO.C,C12*%
X138530000Y-91975000D03*
X138530000Y-89900000D03*
%TD*%
D19*
%TO.C,C15*%
X163025000Y-136410000D03*
X160950000Y-136410000D03*
%TD*%
D15*
%TO.C,C25*%
X145410000Y-71760000D03*
X145410000Y-69685000D03*
%TD*%
D23*
%TO.C,D2*%
X126700000Y-142290000D03*
X126700000Y-140415000D03*
%TD*%
D19*
%TO.C,C27*%
X122090000Y-85510000D03*
X120015000Y-85510000D03*
%TD*%
D10*
%TO.C,C39*%
X143325000Y-95530000D03*
X145400000Y-95530000D03*
%TD*%
D18*
%TO.C,R5*%
X126680000Y-136130000D03*
X126680000Y-138130000D03*
%TD*%
D24*
%TO.C,U$1*%
X153425000Y-116123900D03*
X153425000Y-121026100D03*
%TD*%
D15*
%TO.C,C28*%
X124040000Y-66925000D03*
X124040000Y-64850000D03*
%TD*%
D17*
%TO.C,R3*%
X160600000Y-100640000D03*
X160600000Y-98640000D03*
%TD*%
D18*
%TO.C,R11*%
X145465000Y-139900000D03*
X145465000Y-141900000D03*
%TD*%
D22*
%TO.C,D9*%
X151080000Y-108460000D03*
X153130000Y-108460000D03*
X152110000Y-106060000D03*
%TD*%
D15*
%TO.C,C13*%
X162380000Y-133505000D03*
X162380000Y-131430000D03*
%TD*%
D25*
%TO.C,R6*%
X156250000Y-126590000D03*
X154250000Y-126590000D03*
%TD*%
D10*
%TO.C,C31*%
X131530000Y-65670000D03*
X133605000Y-65670000D03*
%TD*%
D15*
%TO.C,C30*%
X121850000Y-66905000D03*
X121850000Y-64830000D03*
%TD*%
D26*
X135850922Y-79726060D02*
G75*
G02*
X132350922Y-79726060I-1750000J0D01*
G01*
X132350922Y-79726060D02*
G75*
G02*
X135850922Y-79726060I1750000J0D01*
G01*
X121580285Y-131381721D02*
G75*
G02*
X118080285Y-131381721I-1750000J0D01*
G01*
X118080285Y-131381721D02*
G75*
G02*
X121580285Y-131381721I1750000J0D01*
G01*
D27*
X103410000Y-63980000D02*
X192766340Y-63980000D01*
X192766340Y-146625548D01*
X103410000Y-146625548D01*
X103410000Y-63980000D01*
D26*
X181941100Y-128081100D02*
G75*
G02*
X178441100Y-128081100I-1750000J0D01*
G01*
X178441100Y-128081100D02*
G75*
G02*
X181941100Y-128081100I1750000J0D01*
G01*
X183700000Y-80080000D02*
G75*
G02*
X180200000Y-80080000I-1750000J0D01*
G01*
X180200000Y-80080000D02*
G75*
G02*
X183700000Y-80080000I1750000J0D01*
G01*
M02*
