%TF.GenerationSoftware,KiCad,Pcbnew,9.0.1*%
%TF.CreationDate,2026-07-29T12:12:27-04:00*%
%TF.ProjectId,TMotor_Rev0_5_1_Mark_2_NAU_OpenExo,544d6f74-6f72-45f5-9265-76305f355f31,rev?*%
%TF.SameCoordinates,Original*%
%TF.FileFunction,Soldermask,Bot*%
%TF.FilePolarity,Negative*%
%FSLAX46Y46*%
G04 Gerber Fmt 4.6, Leading zero omitted, Abs format (unit mm)*
G04 Created by KiCad (PCBNEW 9.0.1) date 2026-07-29 12:12:27*
%MOMM*%
%LPD*%
G01*
G04 APERTURE LIST*
G04 Aperture macros list*
%AMRoundRect*
0 Rectangle with rounded corners*
0 $1 Rounding radius*
0 $2 $3 $4 $5 $6 $7 $8 $9 X,Y pos of 4 corners*
0 Add a 4 corners polygon primitive as box body*
4,1,4,$2,$3,$4,$5,$6,$7,$8,$9,$2,$3,0*
0 Add four circle primitives for the rounded corners*
1,1,$1+$1,$2,$3*
1,1,$1+$1,$4,$5*
1,1,$1+$1,$6,$7*
1,1,$1+$1,$8,$9*
0 Add four rect primitives between the rounded corners*
20,1,$1+$1,$2,$3,$4,$5,0*
20,1,$1+$1,$4,$5,$6,$7,0*
20,1,$1+$1,$6,$7,$8,$9,0*
20,1,$1+$1,$8,$9,$2,$3,0*%
%AMFreePoly0*
4,1,23,0.500000,-0.750000,0.000000,-0.750000,0.000000,-0.745722,-0.065263,-0.745722,-0.191342,-0.711940,-0.304381,-0.646677,-0.396677,-0.554381,-0.461940,-0.441342,-0.495722,-0.315263,-0.495722,-0.250000,-0.500000,-0.250000,-0.500000,0.250000,-0.495722,0.250000,-0.495722,0.315263,-0.461940,0.441342,-0.396677,0.554381,-0.304381,0.646677,-0.191342,0.711940,-0.065263,0.745722,0.000000,0.745722,
0.000000,0.750000,0.500000,0.750000,0.500000,-0.750000,0.500000,-0.750000,$1*%
%AMFreePoly1*
4,1,23,0.000000,0.745722,0.065263,0.745722,0.191342,0.711940,0.304381,0.646677,0.396677,0.554381,0.461940,0.441342,0.495722,0.315263,0.495722,0.250000,0.500000,0.250000,0.500000,-0.250000,0.495722,-0.250000,0.495722,-0.315263,0.461940,-0.441342,0.396677,-0.554381,0.304381,-0.646677,0.191342,-0.711940,0.065263,-0.745722,0.000000,-0.745722,0.000000,-0.750000,-0.500000,-0.750000,
-0.500000,0.750000,0.000000,0.750000,0.000000,0.745722,0.000000,0.745722,$1*%
%AMFreePoly2*
4,1,23,0.550000,-0.750000,0.000000,-0.750000,0.000000,-0.745722,-0.065263,-0.745722,-0.191342,-0.711940,-0.304381,-0.646677,-0.396677,-0.554381,-0.461940,-0.441342,-0.495722,-0.315263,-0.495722,-0.250000,-0.500000,-0.250000,-0.500000,0.250000,-0.495722,0.250000,-0.495722,0.315263,-0.461940,0.441342,-0.396677,0.554381,-0.304381,0.646677,-0.191342,0.711940,-0.065263,0.745722,0.000000,0.745722,
0.000000,0.750000,0.550000,0.750000,0.550000,-0.750000,0.550000,-0.750000,$1*%
%AMFreePoly3*
4,1,23,0.000000,0.745722,0.065263,0.745722,0.191342,0.711940,0.304381,0.646677,0.396677,0.554381,0.461940,0.441342,0.495722,0.315263,0.495722,0.250000,0.500000,0.250000,0.500000,-0.250000,0.495722,-0.250000,0.495722,-0.315263,0.461940,-0.441342,0.396677,-0.554381,0.304381,-0.646677,0.191342,-0.711940,0.065263,-0.745722,0.000000,-0.745722,0.000000,-0.750000,-0.550000,-0.750000,
-0.550000,0.750000,0.000000,0.750000,0.000000,0.745722,0.000000,0.745722,$1*%
G04 Aperture macros list end*
%ADD10RoundRect,0.102000X-0.492500X-0.492500X0.492500X-0.492500X0.492500X0.492500X-0.492500X0.492500X0*%
%ADD11C,1.189000*%
%ADD12C,1.552000*%
%ADD13R,3.200000X3.200000*%
%ADD14O,3.200000X3.200000*%
%ADD15C,1.512000*%
%ADD16C,1.462000*%
%ADD17R,2.000000X2.000000*%
%ADD18C,2.000000*%
%ADD19R,1.700000X1.700000*%
%ADD20C,1.700000*%
%ADD21C,1.800000*%
%ADD22C,1.727200*%
%ADD23R,1.727200X1.727200*%
%ADD24C,1.712000*%
%ADD25R,3.800000X3.800000*%
%ADD26C,4.000000*%
%ADD27RoundRect,0.102000X0.492500X-0.492500X0.492500X0.492500X-0.492500X0.492500X-0.492500X-0.492500X0*%
%ADD28RoundRect,0.250000X0.475000X-0.337500X0.475000X0.337500X-0.475000X0.337500X-0.475000X-0.337500X0*%
%ADD29RoundRect,0.250000X-0.337500X-0.475000X0.337500X-0.475000X0.337500X0.475000X-0.337500X0.475000X0*%
%ADD30RoundRect,0.250000X-0.450000X0.350000X-0.450000X-0.350000X0.450000X-0.350000X0.450000X0.350000X0*%
%ADD31RoundRect,0.063500X0.279400X-1.092200X0.279400X1.092200X-0.279400X1.092200X-0.279400X-1.092200X0*%
%ADD32FreePoly0,180.000000*%
%ADD33FreePoly1,180.000000*%
%ADD34RoundRect,0.250000X-0.350000X-0.450000X0.350000X-0.450000X0.350000X0.450000X-0.350000X0.450000X0*%
%ADD35FreePoly0,270.000000*%
%ADD36FreePoly1,270.000000*%
%ADD37RoundRect,0.250000X-0.475000X0.337500X-0.475000X-0.337500X0.475000X-0.337500X0.475000X0.337500X0*%
%ADD38R,1.409700X0.355600*%
%ADD39RoundRect,0.250000X0.337500X0.475000X-0.337500X0.475000X-0.337500X-0.475000X0.337500X-0.475000X0*%
%ADD40RoundRect,0.162500X-0.337500X-0.162500X0.337500X-0.162500X0.337500X0.162500X-0.337500X0.162500X0*%
%ADD41RoundRect,0.063500X-0.279400X1.092200X-0.279400X-1.092200X0.279400X-1.092200X0.279400X1.092200X0*%
%ADD42RoundRect,0.250000X0.450000X-0.350000X0.450000X0.350000X-0.450000X0.350000X-0.450000X-0.350000X0*%
%ADD43RoundRect,0.090875X-0.957625X-0.272625X0.957625X-0.272625X0.957625X0.272625X-0.957625X0.272625X0*%
%ADD44R,1.407700X0.355600*%
%ADD45FreePoly2,90.000000*%
%ADD46R,1.500000X1.000000*%
%ADD47FreePoly3,90.000000*%
%ADD48RoundRect,0.250000X0.350000X0.450000X-0.350000X0.450000X-0.350000X-0.450000X0.350000X-0.450000X0*%
%ADD49R,1.003300X0.431800*%
%TA.AperFunction,Profile*%
%ADD50C,0.254000*%
%TD*%
%TA.AperFunction,Profile*%
%ADD51C,0.050000*%
%TD*%
G04 APERTURE END LIST*
%TO.C,TeensyPowerJP1*%
G36*
X109810000Y-132960000D02*
G01*
X109510000Y-132960000D01*
X109510000Y-134460000D01*
X109810000Y-134460000D01*
X109810000Y-132960000D01*
G37*
%TO.C,INA_EXC_JP3*%
G36*
X135590000Y-73110000D02*
G01*
X137090000Y-73110000D01*
X137090000Y-73410000D01*
X135590000Y-73410000D01*
X135590000Y-73110000D01*
G37*
%TO.C,INA_EXC_JP4*%
G36*
X140460000Y-78250000D02*
G01*
X141960000Y-78250000D01*
X141960000Y-78550000D01*
X140460000Y-78550000D01*
X140460000Y-78250000D01*
G37*
%TO.C,JP2*%
G36*
X151660000Y-67500000D02*
G01*
X150160000Y-67500000D01*
X150160000Y-66000000D01*
X151660000Y-66000000D01*
X151660000Y-67500000D01*
G37*
%TO.C,JP1*%
G36*
X169567500Y-71110000D02*
G01*
X168067500Y-71110000D01*
X168067500Y-69610000D01*
X169567500Y-69610000D01*
X169567500Y-71110000D01*
G37*
%TD*%
D10*
%TO.C,RIGHT_LC_CONN1*%
X156230000Y-68200000D03*
D11*
X156230000Y-66930000D03*
X157500000Y-68200000D03*
X157500000Y-66930000D03*
X158770000Y-68200000D03*
X158770000Y-66930000D03*
X160040000Y-68200000D03*
X160040000Y-66930000D03*
X161310000Y-68200000D03*
X161310000Y-66930000D03*
X162580000Y-68200000D03*
X162580000Y-66930000D03*
X163850000Y-68200000D03*
X163850000Y-66930000D03*
D12*
X153640000Y-67565000D03*
X166440000Y-67565000D03*
%TD*%
D13*
%TO.C,D1*%
X167875000Y-104245000D03*
D14*
X167875000Y-89005000D03*
%TD*%
D15*
%TO.C,U7*%
X127810000Y-131120000D03*
X127810000Y-128580000D03*
X127810000Y-126040000D03*
X127810000Y-123500000D03*
X127810000Y-98100000D03*
X112570000Y-128580000D03*
X122770000Y-87900000D03*
X127810000Y-120960000D03*
X127810000Y-118420000D03*
D16*
X124800000Y-127270000D03*
D15*
X127810000Y-115880000D03*
X127810000Y-113340000D03*
X127810000Y-110800000D03*
X127810000Y-108260000D03*
X127810000Y-105720000D03*
X127810000Y-103180000D03*
X127810000Y-100640000D03*
X112570000Y-100640000D03*
X112570000Y-103180000D03*
X112570000Y-105720000D03*
X112570000Y-108260000D03*
X112570000Y-110800000D03*
X112570000Y-113340000D03*
X112570000Y-115880000D03*
X112570000Y-118420000D03*
X112570000Y-120960000D03*
X112570000Y-123500000D03*
X112570000Y-126040000D03*
X127810000Y-95560000D03*
X127810000Y-93020000D03*
X127810000Y-90480000D03*
X127810000Y-87940000D03*
X127810000Y-85400000D03*
X127810000Y-82860000D03*
X127810000Y-80320000D03*
X127810000Y-77780000D03*
X127810000Y-75240000D03*
X112570000Y-75240000D03*
X112570000Y-77780000D03*
X112570000Y-80320000D03*
X112570000Y-82860000D03*
X112570000Y-85400000D03*
X112570000Y-87940000D03*
X112570000Y-90480000D03*
X112570000Y-93020000D03*
X112570000Y-95560000D03*
X127810000Y-133660000D03*
X112570000Y-98100000D03*
X112570000Y-131120000D03*
X120230000Y-87900000D03*
X112570000Y-133660000D03*
%TD*%
D17*
%TO.C,C8*%
X162140000Y-91660000D03*
D18*
X157140000Y-91660000D03*
%TD*%
D19*
%TO.C,J4*%
X106140000Y-142715000D03*
D20*
X106140000Y-140175000D03*
%TD*%
D21*
%TO.C,A1*%
X133110000Y-85480000D03*
X133110000Y-126120000D03*
X148350000Y-85480000D03*
X148350000Y-126120000D03*
D22*
X148350000Y-121040000D03*
X148350000Y-95640000D03*
X148350000Y-115960000D03*
X148350000Y-113420000D03*
X148350000Y-110880000D03*
X148350000Y-108340000D03*
X148350000Y-105800000D03*
X148350000Y-103260000D03*
X148350000Y-100720000D03*
X148350000Y-98180000D03*
X148350000Y-118500000D03*
X133110000Y-88020000D03*
X133110000Y-90560000D03*
X133110000Y-98180000D03*
X133110000Y-100720000D03*
X133110000Y-103260000D03*
X133110000Y-105800000D03*
X133110000Y-108340000D03*
X133110000Y-110880000D03*
X133110000Y-113420000D03*
X133110000Y-115960000D03*
X133110000Y-118500000D03*
X133110000Y-121040000D03*
X133110000Y-123580000D03*
X148350000Y-123580000D03*
D23*
X133110000Y-95640000D03*
X148350000Y-90560000D03*
D22*
X133110000Y-93100000D03*
X148350000Y-93100000D03*
X148350000Y-88020000D03*
%TD*%
D19*
%TO.C,J2*%
X106875000Y-94600000D03*
D20*
X106875000Y-97140000D03*
X106875000Y-99680000D03*
X106875000Y-102220000D03*
%TD*%
D10*
%TO.C,LEFT_LC_CONN1*%
X153090000Y-143560000D03*
D11*
X153090000Y-142290000D03*
X154360000Y-143560000D03*
X154360000Y-142290000D03*
X155630000Y-143560000D03*
X155630000Y-142290000D03*
X156900000Y-143560000D03*
X156900000Y-142290000D03*
X158170000Y-143560000D03*
X158170000Y-142290000D03*
X159440000Y-143560000D03*
X159440000Y-142290000D03*
X160710000Y-143560000D03*
X160710000Y-142290000D03*
D12*
X150500000Y-142925000D03*
X163300000Y-142925000D03*
%TD*%
D18*
%TO.C,TP2*%
X136120000Y-88420000D03*
%TD*%
%TO.C,TP1*%
X136750000Y-97210000D03*
%TD*%
D19*
%TO.C,J3*%
X106675000Y-77325000D03*
D20*
X106675000Y-79865000D03*
%TD*%
D19*
%TO.C,J5*%
X106875000Y-88090000D03*
D20*
X106875000Y-85550000D03*
%TD*%
D24*
%TO.C,U9*%
X161340000Y-110410000D03*
X161340000Y-112950000D03*
X161340000Y-115490000D03*
%TD*%
D25*
%TO.C,J9*%
X183170000Y-116730000D03*
D26*
X183170000Y-121730000D03*
%TD*%
D19*
%TO.C,J1*%
X174910000Y-77690000D03*
D20*
X177450000Y-77690000D03*
X174910000Y-80230000D03*
X177450000Y-80230000D03*
X174910000Y-82770000D03*
X177450000Y-82770000D03*
%TD*%
D25*
%TO.C,J11*%
X181980000Y-136270000D03*
D26*
X181980000Y-141270000D03*
%TD*%
D27*
%TO.C,RIGHT_LC_CONN2*%
X107475000Y-118350000D03*
D11*
X106205000Y-118350000D03*
X107475000Y-117080000D03*
X106205000Y-117080000D03*
X107475000Y-115810000D03*
X106205000Y-115810000D03*
X107475000Y-114540000D03*
X106205000Y-114540000D03*
X107475000Y-113270000D03*
X106205000Y-113270000D03*
X107475000Y-112000000D03*
X106205000Y-112000000D03*
X107475000Y-110730000D03*
X106205000Y-110730000D03*
D12*
X106840000Y-120940000D03*
X106840000Y-108140000D03*
%TD*%
D25*
%TO.C,J10*%
X189310000Y-136290000D03*
D26*
X189310000Y-141290000D03*
%TD*%
D25*
%TO.C,J8*%
X189510000Y-68590000D03*
D26*
X189510000Y-73590000D03*
%TD*%
D25*
%TO.C,J7*%
X182430000Y-68530000D03*
D26*
X182430000Y-73530000D03*
%TD*%
D28*
%TO.C,C17*%
X160250000Y-105495000D03*
X160250000Y-103420000D03*
%TD*%
D29*
%TO.C,C10*%
X163350000Y-116950000D03*
X165425000Y-116950000D03*
%TD*%
D30*
%TO.C,R30*%
X166330000Y-71490000D03*
X166330000Y-73490000D03*
%TD*%
D31*
%TO.C,U2*%
X162895000Y-134030000D03*
X161625000Y-134030000D03*
X160355000Y-134030000D03*
X159085000Y-134030000D03*
X157815000Y-134030000D03*
X156545000Y-134030000D03*
X155275000Y-134030000D03*
X154005000Y-134030000D03*
X154005000Y-129305600D03*
X155275000Y-129305600D03*
X156545000Y-129305600D03*
X157815000Y-129305600D03*
X159085000Y-129305600D03*
X160355000Y-129305600D03*
X161625000Y-129305600D03*
X162895000Y-129305600D03*
%TD*%
D29*
%TO.C,C11*%
X163315000Y-114660000D03*
X165390000Y-114660000D03*
%TD*%
D30*
%TO.C,R15*%
X156040000Y-74920000D03*
X156040000Y-76920000D03*
%TD*%
%TO.C,R14*%
X142470000Y-83200000D03*
X142470000Y-85200000D03*
%TD*%
D28*
%TO.C,C21*%
X142490000Y-135420000D03*
X142490000Y-133345000D03*
%TD*%
D32*
%TO.C,TeensyPowerJP1*%
X110310000Y-133710000D03*
D33*
X109010000Y-133710000D03*
%TD*%
D28*
%TO.C,C20*%
X134980000Y-137410000D03*
X134980000Y-135335000D03*
%TD*%
D34*
%TO.C,R8*%
X161130000Y-138620000D03*
X163130000Y-138620000D03*
%TD*%
D30*
%TO.C,R18*%
X123120000Y-77460000D03*
X123120000Y-79460000D03*
%TD*%
D34*
%TO.C,R10*%
X138660000Y-131110000D03*
X140660000Y-131110000D03*
%TD*%
D35*
%TO.C,INA_EXC_JP3*%
X136340000Y-72610000D03*
D36*
X136340000Y-73910000D03*
%TD*%
D34*
%TO.C,R2*%
X162520000Y-102850000D03*
X164520000Y-102850000D03*
%TD*%
%TO.C,R27*%
X150830000Y-102680000D03*
X152830000Y-102680000D03*
%TD*%
D37*
%TO.C,C4*%
X118310000Y-106685000D03*
X118310000Y-108760000D03*
%TD*%
D30*
%TO.C,R1*%
X159160000Y-81840000D03*
X159160000Y-83840000D03*
%TD*%
%TO.C,R25*%
X125350000Y-77920000D03*
X125350000Y-79920000D03*
%TD*%
D37*
%TO.C,C7*%
X163240000Y-98485000D03*
X163240000Y-100560000D03*
%TD*%
D38*
%TO.C,U5*%
X124510000Y-118720042D03*
X124510000Y-119370028D03*
X124510000Y-120020014D03*
X124510000Y-120670000D03*
X124510000Y-121319986D03*
X124510000Y-121969972D03*
X124510000Y-122619958D03*
X118604500Y-122619958D03*
X118604500Y-121969972D03*
X118604500Y-121319986D03*
X118604500Y-120670000D03*
X118604500Y-120020014D03*
X118604500Y-119370028D03*
X118604500Y-118720042D03*
%TD*%
D39*
%TO.C,C9*%
X165410000Y-110410000D03*
X163335000Y-110410000D03*
%TD*%
D29*
%TO.C,C2*%
X117725000Y-116730000D03*
X119800000Y-116730000D03*
%TD*%
D40*
%TO.C,D7*%
X143830000Y-117020000D03*
X143830000Y-114970000D03*
X146230000Y-115990000D03*
%TD*%
D41*
%TO.C,U4*%
X144750000Y-73765600D03*
X146020000Y-73765600D03*
X147290000Y-73765600D03*
X148560000Y-73765600D03*
X149830000Y-73765600D03*
X151100000Y-73765600D03*
X152370000Y-73765600D03*
X153640000Y-73765600D03*
X153640000Y-78490000D03*
X152370000Y-78490000D03*
X151100000Y-78490000D03*
X149830000Y-78490000D03*
X148560000Y-78490000D03*
X147290000Y-78490000D03*
X146020000Y-78490000D03*
X144750000Y-78490000D03*
%TD*%
D39*
%TO.C,C1*%
X124510000Y-116750000D03*
X122435000Y-116750000D03*
%TD*%
D37*
%TO.C,C3*%
X124380000Y-106775000D03*
X124380000Y-108850000D03*
%TD*%
D35*
%TO.C,INA_EXC_JP4*%
X141210000Y-77750000D03*
D36*
X141210000Y-79050000D03*
%TD*%
D42*
%TO.C,R31*%
X125870000Y-87760000D03*
X125870000Y-85760000D03*
%TD*%
D43*
%TO.C,U8*%
X137605000Y-95130000D03*
X137605000Y-93860000D03*
X137605000Y-92590000D03*
X137605000Y-91320000D03*
X142545000Y-91320000D03*
X142545000Y-92590000D03*
X142545000Y-93860000D03*
X142545000Y-95130000D03*
%TD*%
D44*
%TO.C,U6*%
X124300000Y-110550000D03*
X124300000Y-111200001D03*
X124300000Y-111850002D03*
X124300000Y-112500001D03*
X124300000Y-113150000D03*
X124300000Y-113800001D03*
X124300000Y-114450000D03*
X118396502Y-114450002D03*
X118396502Y-113800001D03*
X118396502Y-113150002D03*
X118396502Y-112500001D03*
X118396502Y-111850002D03*
X118396502Y-111200001D03*
X118396502Y-110550002D03*
%TD*%
D45*
%TO.C,JP2*%
X150910000Y-68050000D03*
D46*
X150910000Y-66750000D03*
D47*
X150910000Y-65450000D03*
%TD*%
D29*
%TO.C,C16*%
X156970000Y-137160000D03*
X159045000Y-137160000D03*
%TD*%
D42*
%TO.C,R9*%
X150450000Y-137480000D03*
X150450000Y-135480000D03*
%TD*%
D34*
%TO.C,R28*%
X150820000Y-104810000D03*
X152820000Y-104810000D03*
%TD*%
D30*
%TO.C,R29*%
X161990000Y-70760000D03*
X161990000Y-72760000D03*
%TD*%
D41*
%TO.C,U1*%
X136455000Y-138445600D03*
X137725000Y-138445600D03*
X138995000Y-138445600D03*
X140265000Y-138445600D03*
X141535000Y-138445600D03*
X142805000Y-138445600D03*
X144075000Y-138445600D03*
X145345000Y-138445600D03*
X145345000Y-143170000D03*
X144075000Y-143170000D03*
X142805000Y-143170000D03*
X141535000Y-143170000D03*
X140265000Y-143170000D03*
X138995000Y-143170000D03*
X137725000Y-143170000D03*
X136455000Y-143170000D03*
%TD*%
D42*
%TO.C,R7*%
X151905000Y-132615000D03*
X151905000Y-130615000D03*
%TD*%
D29*
%TO.C,C43*%
X106510000Y-123610000D03*
X108585000Y-123610000D03*
%TD*%
D39*
%TO.C,C18*%
X134825000Y-139380000D03*
X132750000Y-139380000D03*
%TD*%
D29*
%TO.C,C44*%
X106495000Y-125670000D03*
X108570000Y-125670000D03*
%TD*%
D37*
%TO.C,C5*%
X105430000Y-133825000D03*
X105430000Y-135900000D03*
%TD*%
D41*
%TO.C,U3*%
X123025000Y-67175600D03*
X124295000Y-67175600D03*
X125565000Y-67175600D03*
X126835000Y-67175600D03*
X128105000Y-67175600D03*
X129375000Y-67175600D03*
X130645000Y-67175600D03*
X131915000Y-67175600D03*
X131915000Y-71900000D03*
X130645000Y-71900000D03*
X129375000Y-71900000D03*
X128105000Y-71900000D03*
X126835000Y-71900000D03*
X125565000Y-71900000D03*
X124295000Y-71900000D03*
X123025000Y-71900000D03*
%TD*%
D48*
%TO.C,R22*%
X160460000Y-124050000D03*
X158460000Y-124050000D03*
%TD*%
D39*
%TO.C,C14*%
X154670000Y-137160000D03*
X152595000Y-137160000D03*
%TD*%
D30*
%TO.C,R19*%
X134440000Y-68470000D03*
X134440000Y-70470000D03*
%TD*%
D49*
%TO.C,U10*%
X157760000Y-101440014D03*
X157760000Y-102090000D03*
X157760000Y-102739986D03*
X157760000Y-103389972D03*
X155105700Y-103389972D03*
X155105700Y-102739986D03*
X155105700Y-102090000D03*
X155105700Y-101440014D03*
%TD*%
D30*
%TO.C,R24*%
X140400000Y-83160000D03*
X140400000Y-85160000D03*
%TD*%
D37*
%TO.C,C22*%
X164300000Y-71440000D03*
X164300000Y-73515000D03*
%TD*%
%TO.C,C6*%
X159850000Y-70705000D03*
X159850000Y-72780000D03*
%TD*%
D42*
%TO.C,R12*%
X144770000Y-133500000D03*
X144770000Y-131500000D03*
%TD*%
%TO.C,R32*%
X123890000Y-86080000D03*
X123890000Y-84080000D03*
%TD*%
D39*
%TO.C,C36*%
X156310000Y-124000000D03*
X154235000Y-124000000D03*
%TD*%
D45*
%TO.C,JP1*%
X168817500Y-71660000D03*
D46*
X168817500Y-70360000D03*
D47*
X168817500Y-69060000D03*
%TD*%
D50*
X135850922Y-79726060D02*
G75*
G02*
X132350922Y-79726060I-1750000J0D01*
G01*
X132350922Y-79726060D02*
G75*
G02*
X135850922Y-79726060I1750000J0D01*
G01*
X121580285Y-131381721D02*
G75*
G02*
X118080285Y-131381721I-1750000J0D01*
G01*
X118080285Y-131381721D02*
G75*
G02*
X121580285Y-131381721I1750000J0D01*
G01*
D51*
X103410000Y-63980000D02*
X192766340Y-63980000D01*
X192766340Y-146625548D01*
X103410000Y-146625548D01*
X103410000Y-63980000D01*
D50*
X181941100Y-128081100D02*
G75*
G02*
X178441100Y-128081100I-1750000J0D01*
G01*
X178441100Y-128081100D02*
G75*
G02*
X181941100Y-128081100I1750000J0D01*
G01*
X183700000Y-80080000D02*
G75*
G02*
X180200000Y-80080000I-1750000J0D01*
G01*
X180200000Y-80080000D02*
G75*
G02*
X183700000Y-80080000I1750000J0D01*
G01*
M02*
